<svg width="185" height="213" viewBox="0 0 185 213" fill="none" xmlns="http://www.w3.org/2000/svg">
<path d="M170.617 47.2617H183.97L185 198.344C185 198.344 185.257 213.098 169.083 212.955C152.908 212.811 153.261 202.166 153.261 202.166L170.627 47.2617H170.617Z" fill="#6E5FA4"/>
<path d="M170.408 0H8.05371V198.745H170.408V0Z" fill="#72B4F7"/>
<path d="M0 62.5983V198.621C0 198.621 0.781556 212.381 10.1984 212.773C19.6152 213.165 172.934 212.773 172.934 212.773C172.934 212.773 161.954 213.557 160.782 202.157C159.609 190.757 160.162 73.5585 160.162 73.5585L95.5787 73.1954L57.6827 73.5776L44.4058 62.5887H0V62.5983Z" fill="#9572F7"/>
<path d="M101.431 132.363C101.45 131.656 102.365 98.3264 76.4687 98.3837C49.4192 98.4411 52.9172 131.656 52.9934 132.363H44.1104V180.437H108.732V132.363H101.44H101.431ZM76.6498 114.275C90.1364 114.275 88.4113 131.551 88.3255 132.363H66.156C66.013 131.551 63.1632 114.275 76.6498 114.275Z" fill="#F7CD72"/>
<path d="M119.731 47.2617H67.5759C65.3177 47.2617 63.4871 49.097 63.4871 51.361C63.4871 53.625 65.3177 55.4603 67.5759 55.4603H119.731C121.989 55.4603 123.819 53.625 123.819 51.361C123.819 49.097 121.989 47.2617 119.731 47.2617Z" fill="#F7CD72"/>
<path d="M53.4033 55.4507C55.6615 55.4507 57.4922 53.6154 57.4922 51.3514C57.4922 49.0874 55.6615 47.2521 53.4033 47.2521C51.1451 47.2521 49.3145 49.0874 49.3145 51.3514C49.3145 53.6154 51.1451 55.4507 53.4033 55.4507Z" fill="#F7CD72"/>
<path d="M119.731 32.6226H67.5759C65.3177 32.6226 63.4871 34.4579 63.4871 36.7219C63.4871 38.9859 65.3177 40.8212 67.5759 40.8212H119.731C121.989 40.8212 123.819 38.9859 123.819 36.7219C123.819 34.4579 121.989 32.6226 119.731 32.6226Z" fill="#F7CD72"/>
<path d="M53.4033 40.8117C55.6615 40.8117 57.4922 38.9763 57.4922 36.7123C57.4922 34.4484 55.6615 32.613 53.4033 32.613C51.1451 32.613 49.3145 34.4484 49.3145 36.7123C49.3145 38.9763 51.1451 40.8117 53.4033 40.8117Z" fill="#F7CD72"/>
<path d="M119.731 16.8273H67.5759C65.3177 16.8273 63.4871 18.6626 63.4871 20.9266C63.4871 23.1906 65.3177 25.0259 67.5759 25.0259H119.731C121.989 25.0259 123.819 23.1906 123.819 20.9266C123.819 18.6626 121.989 16.8273 119.731 16.8273Z" fill="#F7CD72"/>
<path d="M53.4033 25.0259C55.6615 25.0259 57.4922 23.1906 57.4922 20.9266C57.4922 18.6626 55.6615 16.8273 53.4033 16.8273C51.1451 16.8273 49.3145 18.6626 49.3145 20.9266C49.3145 23.1906 51.1451 25.0259 53.4033 25.0259Z" fill="#F7CD72"/>
</svg>
