<svg width="212" height="171" viewBox="0 0 212 171" fill="none" xmlns="http://www.w3.org/2000/svg">
<g clip-path="url(#clip0_86_516)">
<path d="M8.38947 45.7273V149.42C8.56458 150.646 9.26502 154.444 12.5368 157.716C13.4124 158.592 16.251 161.209 20.8316 161.864H132.811C134.23 161.647 137.962 160.882 141.105 157.716C145.99 152.794 145.359 146.19 145.253 145.273V78.9091C145.354 78.1856 146.188 71.5446 141.105 66.4659C140.589 65.9498 135.774 61.2997 128.663 62.3182H78.8947L62.3053 45.7273H8.38947Z" fill="#C67758"/>
<path d="M211.611 0.102295H112.074V128.682H211.611V0.102295Z" fill="#96F4A4"/>
<path d="M182.579 16.6932H83.0421V145.273H182.579V16.6932Z" fill="#81B3F2"/>
<path d="M0.0947266 54.0227V157.716C0.269838 158.942 0.970282 162.739 4.24209 166.011C5.11765 166.887 7.95629 169.505 12.5368 170.159H124.516C125.935 169.942 129.668 169.177 132.811 166.011C137.695 161.089 137.064 154.485 136.958 153.568V87.2045C137.059 86.481 137.893 79.84 132.811 74.7613C132.294 74.2452 127.479 69.5951 120.368 70.6136H70.6L54.0105 54.0227H0.0947266Z" fill="#F0956A"/>
<path d="M70.6 132.83H12.5368V153.568H70.6V132.83Z" fill="#E67A84"/>
<path d="M98.6546 31.4706C98.6546 30.469 97.8417 29.6571 96.839 29.6571C95.8363 29.6571 95.0234 30.469 95.0234 31.4706C95.0234 32.4721 95.8363 33.2841 96.839 33.2841C97.8417 33.2841 98.6546 32.4721 98.6546 31.4706Z" fill="#9073EF"/>
<path d="M128.894 29.1364H99.862V33.2841H128.894V29.1364Z" fill="#9073EF"/>
<path d="M157.695 37.4318H95.945V41.5795H157.695V37.4318Z" fill="#9073EF"/>
<path d="M157.234 45.7273H95.4842V49.875H157.234V45.7273Z" fill="#9073EF"/>
</g>
<defs>
<clipPath id="clip0_86_516">
<rect width="212" height="171" fill="white"/>
</clipPath>
</defs>
</svg>
