<svg width="290" height="177" viewBox="0 0 290 177" fill="none" xmlns="http://www.w3.org/2000/svg">
<path d="M283.593 28.196C281.936 27.5964 278.219 27.0949 272.79 26.6916L279.113 27.1277C279.113 27.1277 279.603 21.9278 276.061 16.063C272.899 10.8414 260.962 11.2556 260.962 11.2556H174.484C171.835 11.2556 169.676 13.4031 169.676 16.063C169.676 18.7229 171.824 20.8704 174.484 20.8704H260.962C270.076 20.8704 270.021 26.4954 270.021 26.4954H270.196C256.613 25.6342 234.342 25.2418 207.536 25.2418C207.536 25.2418 159.506 25.7323 156.955 24.773C153.848 23.5957 160.312 2.01143 149.248 1.13934C134.607 -0.0161847 119.4 0.51797 102.58 0.00561646C91.7986 -0.34322 88.2993 15.6597 87.3727 19.5187C86.4461 23.3886 51.2028 144.544 49.6548 158.497C48.1068 172.451 60.5014 176.582 60.5014 176.582C60.5014 176.582 217.042 177.095 236.162 176.582C255.283 176.07 258.466 163.435 258.466 163.435C258.466 163.435 283.877 65.02 287.016 54.0753C292.521 34.8893 289.273 30.2672 283.582 28.2069L283.593 28.196Z" fill="#F77282"/>
<path d="M88.452 78.1559H33.6629C31.0078 78.1559 28.8555 80.3058 28.8555 82.9579C28.8555 85.6099 31.0078 87.7598 33.6629 87.7598H88.452C91.1071 87.7598 93.2594 85.6099 93.2594 82.9579C93.2594 80.3058 91.1071 78.1559 88.452 78.1559Z" fill="#F7CD72"/>
<path d="M103.855 43.5448H41.7513C39.0962 43.5448 36.9438 45.6947 36.9438 48.3468C36.9438 50.9988 39.0962 53.1487 41.7513 53.1487H103.855C106.51 53.1487 108.662 50.9988 108.662 48.3468C108.662 45.6947 106.51 43.5448 103.855 43.5448Z" fill="#F7CD72"/>
<path d="M121.112 27.1713H22.4563C19.8013 27.1713 17.6489 29.3212 17.6489 31.9732C17.6489 34.6253 19.8013 36.7752 22.4563 36.7752H121.112C123.767 36.7752 125.919 34.6253 125.919 31.9732C125.919 29.3212 123.767 27.1713 121.112 27.1713Z" fill="#FF8F60"/>
<path d="M6.94403 37.0041C10.7791 37.0041 13.8881 34.8518 13.8881 32.1967C13.8881 29.5417 10.7791 27.3893 6.94403 27.3893C3.10895 27.3893 0 29.5417 0 32.1967C0 34.8518 3.10895 37.0041 6.94403 37.0041Z" fill="#FF8F60"/>
</svg>
