<svg width="252" height="156" viewBox="0 0 252 156" fill="none" xmlns="http://www.w3.org/2000/svg">
<g clip-path="url(#clip0_86_425)">
<path d="M191.132 90.6891C186.1 91.4939 178.591 93.2664 170.429 97.5857C165.081 100.413 160.243 102.975 156.629 107.926C149.048 118.306 152.204 131.85 153.177 135.502H249.785C250.331 133.897 254.847 119.89 246.334 107.926C241.684 101.391 235.398 98.6299 232.533 97.5857C225.631 95.2885 218.733 92.9914 211.83 90.6891H191.127H191.132Z" fill="#96F4A4"/>
<path d="M199.952 18.3002H199.947C186.609 18.3002 175.797 29.1026 175.797 42.4281V59.6697C175.797 72.9952 186.609 83.7976 199.947 83.7976H199.952C213.289 83.7976 224.101 72.9952 224.101 59.6697V42.4281C224.101 29.1026 213.289 18.3002 199.952 18.3002Z" fill="#F1CE80"/>
<path d="M189.598 80.3492V90.6891C192.845 98.258 196.087 105.827 199.335 113.391C199.539 113.865 199.743 114.343 199.947 114.817C203.398 106.774 206.849 98.7317 210.296 90.6891V80.3492H189.593H189.598Z" fill="#F1CE80"/>
<path d="M39.7969 88.2085C34.7651 89.0133 27.2557 90.7858 19.0937 95.1051C13.7459 97.932 8.90784 100.494 5.29333 105.445C-2.28745 115.826 0.868229 129.369 1.84195 133.021H98.4498C98.9953 131.417 103.512 117.41 94.9984 105.445C90.349 98.91 84.0631 96.1493 81.198 95.1051C74.2953 92.8079 67.3976 90.5108 60.4949 88.2085H39.7918H39.7969Z" fill="#81B3F2"/>
<path d="M154.941 32.1188C154.941 14.3964 140.562 0.0296631 122.824 0.0296631C105.085 0.0296631 90.7059 14.3964 90.7059 32.1188V55.0396C90.7059 72.7619 105.085 87.1287 122.824 87.1287C140.562 87.1287 154.941 72.7619 154.941 55.0396V32.1188Z" fill="#F1CE80"/>
<path d="M111.098 96.297C104.404 97.3666 94.4224 99.7249 83.5686 105.465C76.462 109.224 70.0282 112.632 65.2157 119.218C55.1318 133.026 59.3326 151.032 60.6275 155.891H189.098C189.827 153.757 195.833 135.125 184.51 119.218C178.326 110.528 169.965 106.856 166.157 105.465L138.627 96.297H111.098Z" fill="#E67A84"/>
<path d="M109.059 82.5446V96.297C113.377 106.362 117.695 116.427 122.008 126.486C122.278 127.118 122.548 127.749 122.824 128.386L136.588 96.297V82.5446H109.059Z" fill="#F1CE80"/>
<path d="M48.6165 15.8196H48.6114C35.274 15.8196 24.462 26.622 24.462 39.9475V57.1891C24.462 70.5146 35.274 81.317 48.6114 81.317H48.6165C61.9538 81.317 72.7659 70.5146 72.7659 57.1891V39.9475C72.7659 26.622 61.9538 15.8196 48.6165 15.8196Z" fill="#F1CE80"/>
<path d="M38.2624 77.8687V88.2085C41.5098 95.7774 44.7522 103.346 47.9996 110.91C48.2035 111.384 48.4074 111.863 48.6114 112.336C52.0627 104.294 55.5141 96.2511 58.9604 88.2085V77.8687H38.2572H38.2624Z" fill="#F1CE80"/>
<path d="M90.7059 36.7029C90.4765 34.9202 88.8145 20.1439 99.8824 9.19798C108.702 0.472799 119.698 0.0296631 122.824 0.0296631C127.131 0.0296631 137.44 0.870092 145.765 9.19798C154.992 18.4274 154.982 30.0355 154.941 32.1188C147.233 31.7215 143.328 29.5669 141.176 27.5346C140.325 26.7298 136.588 22.9505 136.588 22.9505C124.394 29.5822 118.235 32.1188 118.235 32.1188C112.235 34.5891 103.247 37.1002 90.7059 36.7029Z" fill="#F0956A"/>
<path d="M23.7125 41.2565C23.5392 39.9118 22.2851 28.752 30.6408 20.4852C37.2988 13.8993 45.6035 13.5631 47.9639 13.5631C50.151 13.5631 58.5322 13.8483 65.2871 20.4852C73.6988 28.752 72.5161 39.922 72.3529 41.2871C69.2329 39.81 65.5063 37.6147 61.8255 34.3293C60.5204 33.168 59.3733 32.0016 58.3588 30.8658C49.1467 35.8727 44.4972 37.7878 44.4972 37.7878C39.9651 39.6521 33.1796 41.5519 23.7075 41.2514L23.7125 41.2565Z" fill="#F0956A"/>
<path d="M174.869 45.6778C174.696 44.3331 173.442 33.1732 181.798 24.9065C188.456 18.3205 196.76 17.9844 199.121 17.9844C201.308 17.9844 209.689 18.2696 216.444 24.9065C224.856 33.1732 223.673 44.3433 223.51 45.7083C220.39 44.2312 216.663 42.0359 212.982 38.7506C211.677 37.5893 210.53 36.4229 209.516 35.287C200.304 40.2939 195.654 42.2091 195.654 42.2091C191.122 44.0733 184.336 45.9732 174.864 45.6727L174.869 45.6778Z" fill="#F0956A"/>
</g>
<defs>
<clipPath id="clip0_86_425">
<rect width="252" height="156" fill="white"/>
</clipPath>
</defs>
</svg>
