<svg width="232" height="176" viewBox="0 0 232 176" fill="none" xmlns="http://www.w3.org/2000/svg">
<path d="M180.993 0H12.2141C5.46842 0 0 5.48016 0 12.2403V120.874C0 127.635 5.46842 133.115 12.2141 133.115H180.993C187.738 133.115 193.207 127.635 193.207 120.874V12.2403C193.207 5.48016 187.738 0 180.993 0Z" fill="#6F5DC6"/>
<path d="M169.54 8.36722H23.667C16.8976 8.36722 11.4099 13.8193 11.4099 20.5448V112.57C11.4099 119.295 16.8976 124.748 23.667 124.748H169.54C176.309 124.748 181.797 119.295 181.797 112.57V20.5448C181.797 13.8193 176.309 8.36722 169.54 8.36722Z" fill="#9073EF"/>
<path d="M84.6221 129.311C84.1114 132.218 83.0497 136.592 80.5903 141.349C75.0577 152.053 67.8901 154.189 68.4949 157.399C70.0359 165.588 119.367 165.588 120.908 157.399C121.513 154.189 114.345 152.053 108.813 141.349C106.354 136.592 105.292 132.218 104.781 129.311H84.6221Z" fill="#6F5DC6"/>
<path d="M222.156 68.459H165.017C159.581 68.459 155.174 72.8574 155.174 78.2832V165.127C155.174 170.552 159.581 174.951 165.017 174.951H222.156C227.593 174.951 232 170.552 232 165.127V78.2832C232 72.8574 227.593 68.459 222.156 68.459Z" fill="#D8B56F"/>
<path d="M217.678 74.5443H169.496C164.107 74.5443 159.738 78.9265 159.738 84.3322V152.232C159.738 157.637 164.107 162.02 169.496 162.02H217.678C223.067 162.02 227.436 157.637 227.436 152.232V84.3322C227.436 78.9265 223.067 74.5443 217.678 74.5443Z" fill="#F1CE80"/>
<path d="M198.531 167.344C198.531 164.824 196.658 162.78 194.348 162.78C192.037 162.78 190.164 164.824 190.164 167.344C190.164 169.865 192.037 171.908 194.348 171.908C196.658 171.908 198.531 169.865 198.531 167.344Z" fill="#F1CE80"/>
<path d="M171.253 107.252H142.898C139.595 107.252 136.918 109.927 136.918 113.226V169.738C136.918 173.037 139.595 175.711 142.898 175.711H171.253C174.555 175.711 177.233 173.037 177.233 169.738V113.226C177.233 109.927 174.555 107.252 171.253 107.252Z" fill="#85DD8F"/>
<path d="M167.506 111.056H147.406C144.134 111.056 141.482 113.737 141.482 117.044V157.552C141.482 160.86 144.134 163.541 147.406 163.541H167.506C170.777 163.541 173.429 160.86 173.429 157.552V117.044C173.429 113.737 170.777 111.056 167.506 111.056Z" fill="#96F4A4"/>
<path d="M160.498 169.246C160.498 167.355 159.136 165.823 157.456 165.823C155.775 165.823 154.413 167.355 154.413 169.246C154.413 171.136 155.775 172.669 157.456 172.669C159.136 172.669 160.498 171.136 160.498 169.246Z" fill="#96F4A4"/>
</svg>
