<svg width="32" height="32" viewBox="0 0 32 32" fill="none" xmlns="http://www.w3.org/2000/svg">
<path d="M9.35002 0.166748H22.65C27.7167 0.166748 31.8334 4.28342 31.8334 9.35008V22.6501C31.8334 25.0857 30.8658 27.4215 29.1436 29.1437C27.4214 30.8659 25.0856 31.8334 22.65 31.8334H9.35002C4.28335 31.8334 0.166687 27.7168 0.166687 22.6501V9.35008C0.166687 6.91451 1.13421 4.57869 2.85642 2.85648C4.57863 1.13428 6.91445 0.166748 9.35002 0.166748ZM9.03335 3.33342C7.52162 3.33342 6.0718 3.93395 5.00285 5.00291C3.93389 6.07186 3.33335 7.52168 3.33335 9.03342V22.9667C3.33335 26.1176 5.88252 28.6668 9.03335 28.6668H22.9667C24.4784 28.6668 25.9282 28.0662 26.9972 26.9973C28.0662 25.9283 28.6667 24.4785 28.6667 22.9667V9.03342C28.6667 5.88258 26.1175 3.33342 22.9667 3.33342H9.03335ZM24.3125 5.70842C24.8374 5.70842 25.3408 5.91693 25.712 6.2881C26.0832 6.65927 26.2917 7.16267 26.2917 7.68758C26.2917 8.21249 26.0832 8.7159 25.712 9.08706C25.3408 9.45823 24.8374 9.66675 24.3125 9.66675C23.7876 9.66675 23.2842 9.45823 22.913 9.08706C22.5419 8.7159 22.3334 8.21249 22.3334 7.68758C22.3334 7.16267 22.5419 6.65927 22.913 6.2881C23.2842 5.91693 23.7876 5.70842 24.3125 5.70842ZM16 8.08342C18.0997 8.08342 20.1133 8.91749 21.598 10.4022C23.0826 11.8868 23.9167 13.9005 23.9167 16.0001C23.9167 18.0997 23.0826 20.1133 21.598 21.598C20.1133 23.0827 18.0997 23.9167 16 23.9167C13.9004 23.9167 11.8868 23.0827 10.4021 21.598C8.91743 20.1133 8.08335 18.0997 8.08335 16.0001C8.08335 13.9005 8.91743 11.8868 10.4021 10.4022C11.8868 8.91749 13.9004 8.08342 16 8.08342ZM16 11.2501C14.7402 11.2501 13.5321 11.7505 12.6413 12.6413C11.7505 13.5321 11.25 14.7403 11.25 16.0001C11.25 17.2599 11.7505 18.468 12.6413 19.3588C13.5321 20.2496 14.7402 20.7501 16 20.7501C17.2598 20.7501 18.468 20.2496 19.3588 19.3588C20.2496 18.468 20.75 17.2599 20.75 16.0001C20.75 14.7403 20.2496 13.5321 19.3588 12.6413C18.468 11.7505 17.2598 11.2501 16 11.2501Z" fill="white"/>
</svg>
