<svg width="216" height="160" viewBox="0 0 216 179" fill="none" xmlns="http://www.w3.org/2000/svg">
<path d="M8.6154 49.6142C8.79763 43.1613 13.3224 37.7382 19.2827 36.5735C24.5764 35.5392 30.1011 38.0439 33.0613 42.869C38.1639 40.7735 43.982 43.3052 45.951 48.2652C47.8133 52.9553 45.7243 58.5268 41.0618 60.8562C31.8746 64.0039 22.6918 67.1517 13.5046 70.2995C7.91313 71.653 2.3928 68.6896 0.614914 64.0039C-1.48299 58.4774 1.93499 51.3769 8.6154 49.6142Z" fill="#F8FCFF"/>
<path d="M84.6858 174.857C124.64 174.857 157.029 142.315 157.029 102.171C157.029 62.0282 124.64 29.4857 84.6858 29.4857C44.732 29.4857 12.343 62.0282 12.343 102.171C12.343 142.315 44.732 174.857 84.6858 174.857Z" fill="#81B3F2"/>
<path d="M168.769 85.1796C167.608 88.1202 169.432 107.653 170.032 113.814C168.213 113.128 166.888 112.375 165.985 111.787C165.246 111.306 164.544 110.776 163.961 111.025C163.481 111.235 163.187 111.934 163.2 112.545C163.254 114.781 167.426 115.285 170.032 117.864C170.241 118.074 170.819 118.671 171.549 118.626C172.198 118.586 172.643 118.056 172.812 117.864C175.014 115.392 179.381 114.991 179.644 112.545C179.702 112.023 179.577 111.328 179.137 111.025C178.607 110.655 177.794 110.976 176.606 111.533C175.507 112.046 174.031 112.79 172.305 113.814C172.559 107.14 173.199 87.5811 171.544 84.9257C171.326 84.5737 170.717 83.5935 170.028 83.6604C169.338 83.7227 168.916 84.7965 168.765 85.1796H168.769Z" fill="#E67A84"/>
<path d="M188.655 102.322C187.494 105.263 189.317 124.795 189.918 130.957C188.099 130.271 186.773 129.518 185.87 128.93C185.132 128.449 184.429 127.919 183.847 128.168C183.366 128.378 183.073 129.077 183.086 129.687C183.14 131.924 187.312 132.427 189.918 135.007C190.127 135.217 190.705 135.814 191.435 135.769C192.084 135.729 192.529 135.199 192.698 135.007C194.899 132.534 199.267 132.133 199.53 129.687C199.587 129.166 199.463 128.471 199.023 128.168C198.493 127.798 197.679 128.119 196.492 128.676C195.393 129.188 193.916 129.932 192.191 130.957C192.444 124.283 193.085 104.724 191.43 102.069C191.212 101.717 190.603 100.736 189.913 100.803C189.224 100.866 188.802 101.939 188.65 102.322H188.655Z" fill="#E67A84"/>
<path d="M91.6213 34.8728C91.6213 34.8728 88.0542 43.3136 85.3788 45.9791C82.7034 48.6446 78.2445 54.8641 75.5691 55.3083C72.8938 55.7526 71.5561 56.1968 69.3266 54.8641C67.0971 53.5313 66.6512 52.1986 64.8676 53.0871C63.0841 53.9756 60.4087 56.1968 59.9628 58.4181C59.5169 60.6393 59.5169 62.4163 61.3005 64.1933C63.0841 65.9703 70.2184 69.9686 72.4479 70.4128C74.6773 70.8571 76.3673 71.7456 78.4229 70.4128C80.474 69.0801 83.1493 66.8588 86.2706 67.3031C89.3919 67.7473 96.0803 71.7456 98.7557 73.5226L116.146 85.0731C121.496 88.6271 127.739 88.6271 128.631 92.1811C129.522 95.7351 131.306 90.8484 129.522 97.0679C127.739 103.287 129.968 101.066 126.401 103.287C122.834 105.509 119.267 105.509 116.591 108.174C113.916 110.84 113.024 110.84 112.133 113.949C111.241 117.059 109.903 120.169 109.903 123.723C109.903 127.277 110.349 129.054 108.565 131.719C106.782 134.385 100.539 141.937 97.418 144.603C94.2967 147.268 92.5131 149.489 90.2837 148.601C88.0542 147.712 85.8247 145.047 85.3788 142.826C84.9329 140.604 85.3788 136.606 84.487 130.387C83.5952 124.167 83.1493 122.39 80.9199 120.169C78.6904 117.948 70.2184 110.395 69.3266 107.73C68.4348 105.064 67.0971 105.509 67.0971 101.51C67.0971 97.5121 67.543 91.7369 65.7594 89.0714C63.9759 86.4059 51.9367 77.9651 50.1531 77.9651C48.3695 77.9651 44.8024 79.2979 43.0188 77.9651C41.2352 76.6324 41.2352 73.0784 41.2352 69.9686C41.2352 66.8588 41.2352 65.0818 40.3434 64.1933C39.4516 63.3048 37.668 62.4163 34.9927 62.8606C33.0798 63.1804 30.0165 62.4741 26.0748 63.3048C24.1753 63.7047 23.6313 64.0201 23.3994 63.7491C22.8866 63.1493 24.474 60.3461 34.1009 50.4216C40.3702 43.8822 46.6573 39.8884 51.0449 37.5383C54.621 35.6236 65.6257 30.1504 80.9199 29.5418C86.7834 29.3063 91.6972 29.8528 95.1885 30.4303C93.998 31.9096 92.8119 33.3934 91.6213 34.8728Z" fill="#96F4A4"/>
<path d="M24.9938 146.048C27.0738 140.06 32.3296 135.961 37.9656 135.778C45.2388 135.545 52.2391 141.873 52.7267 150.514C62.8581 148.701 70.3147 154.305 70.6189 158.998C70.8738 162.959 66.1458 167.929 58.989 169.715C58.3135 170.693 53.5184 177.351 44.6752 178.199C34.2351 179.2 27.6866 171.184 27.2303 170.608C20.0198 171.729 13.4489 166.777 12.4693 160.338C11.4136 153.398 17.0989 146.303 24.9938 146.048Z" fill="#F8FCFF"/>
<path d="M115.46 26.9244C106.503 29.3337 100.48 37.4237 100.813 45.9337C101.199 55.7433 109.948 64.1516 120.786 64.0587C121.097 64.7749 124.972 73.2981 134.546 75.1106C143.383 76.7817 149.774 71.353 150.524 70.6899C151.39 71.3574 157.892 76.1849 166.503 74.2265C174.59 72.3874 178.349 65.9774 178.93 64.9429C188.655 70.681 200.603 69.8544 208.224 63.1746C218.553 54.1209 218.482 36.46 208.668 27.8086C199.369 19.6081 185.952 23.5779 185.144 23.8299C185.162 22.9723 185.255 9.35634 175.38 3.05234C165.668 -3.14555 150.023 0.0948599 141.203 12.778C140.245 12.2033 134.062 8.64018 127 11.0097C120.507 13.1891 115.891 19.502 115.46 26.9244Z" fill="#F8FCFF"/>
<path d="M183.081 50.1679V52.1143H175.543C175.623 51.3767 175.87 50.6828 176.278 50.0239C176.686 49.3649 177.492 48.492 178.698 47.4054C179.666 46.5238 180.262 45.9303 180.482 45.6161C180.777 45.184 180.925 44.7564 180.925 44.333C180.925 43.8661 180.795 43.5082 180.54 43.2551C180.28 43.0063 179.926 42.8798 179.473 42.8798C179.021 42.8798 178.667 43.0107 178.402 43.2769C178.138 43.5388 177.985 43.9795 177.94 44.5905L175.798 44.381C175.924 43.2289 176.327 42.3997 176.999 41.8979C177.672 41.396 178.514 41.1429 179.527 41.1429C180.634 41.1429 181.504 41.4352 182.135 42.0157C182.767 42.5961 183.086 43.3206 183.086 44.1847C183.086 44.6778 182.996 45.1448 182.812 45.5899C182.633 46.0351 182.346 46.502 181.952 46.9864C181.692 47.3094 181.221 47.772 180.544 48.3786C179.868 48.9852 179.437 49.3867 179.254 49.5874C179.07 49.7882 178.926 49.9802 178.814 50.1679H183.086H183.081Z" fill="black"/>
<path d="M147.843 42.4843L151.543 43.5974C150.975 45.5526 150.034 47.0034 148.714 47.9498C147.394 48.9003 145.723 49.3714 143.695 49.3714C141.187 49.3714 139.124 48.5584 137.509 46.9367C135.895 45.315 135.085 43.093 135.085 40.2748C135.085 37.294 135.899 34.9802 137.523 33.3293C139.146 31.6784 141.279 30.8571 143.928 30.8571C146.237 30.8571 148.116 31.5033 149.559 32.7998C150.416 33.5669 151.063 34.6634 151.49 36.0975L147.715 36.9521C147.491 36.0224 147.025 35.2929 146.316 34.7551C145.608 34.2173 144.746 33.9505 143.734 33.9505C142.335 33.9505 141.196 34.4257 140.325 35.3804C139.454 36.3351 139.018 37.8776 139.018 40.0079C139.018 42.2717 139.449 43.8851 140.307 44.8439C141.165 45.8028 142.282 46.2864 143.659 46.2864C144.671 46.2864 145.547 45.982 146.277 45.3692C147.007 44.7564 147.531 43.7975 147.847 42.4885L147.843 42.4843Z" fill="black"/>
<path d="M154.286 40.2289C154.286 38.4029 154.564 36.8729 155.124 35.6347C155.544 34.7217 156.113 33.9046 156.836 33.1792C157.56 32.4538 158.351 31.916 159.211 31.5658C160.358 31.0947 161.676 30.8571 163.174 30.8571C165.883 30.8571 168.049 31.6742 169.675 33.3126C171.301 34.951 172.114 37.2273 172.114 40.1414C172.114 43.0554 171.31 45.2942 169.696 46.9242C168.083 48.5585 165.926 49.3714 163.226 49.3714C160.525 49.3714 158.321 48.5585 156.708 46.9367C155.094 45.315 154.29 43.0763 154.29 40.2247L154.286 40.2289ZM158.112 40.1038C158.112 42.1299 158.591 43.6683 159.554 44.7147C160.517 45.7611 161.736 46.2822 163.213 46.2822C164.689 46.2822 165.905 45.7611 166.855 44.723C167.805 43.685 168.28 42.1258 168.28 40.0496C168.28 37.9735 167.818 36.4685 166.893 35.4555C165.969 34.4466 164.745 33.9421 163.213 33.9421C161.681 33.9421 160.448 34.4549 159.515 35.4763C158.578 36.4977 158.112 38.0402 158.112 40.0997V40.1038Z" fill="black"/>
</svg>
