<svg width="269" height="213" viewBox="0 0 269 213" fill="none" xmlns="http://www.w3.org/2000/svg">
<path d="M24.1124 31.82V12.5615C24.1124 12.5615 22.7275 1.49559 33.7934 0.46018C44.8593 -0.575225 193.233 0.46018 193.233 0.46018C193.233 0.46018 206.37 0.46018 208.453 11.8755V31.82L197.737 32.8813L198.035 15.9136C198.035 15.9136 198.112 10.2965 191.123 10.5813C184.134 10.866 40.8342 10.866 40.8342 10.866C40.8342 10.866 34.0782 9.83059 34.8029 17.7773L34.8288 31.82H24.1124Z" fill="#F7CD72"/>
<path d="M213.203 31.7682H15.5311C6.9535 31.7682 0 38.7217 0 47.2993V63.5811C0 72.1586 6.9535 79.1121 15.5311 79.1121H213.203C221.78 79.1121 228.734 72.1586 228.734 63.5811V47.2993C228.734 38.7217 221.78 31.7682 213.203 31.7682Z" fill="#FF8F60"/>
<path d="M213.203 77.8826H15.5311C6.9535 77.8826 0 84.8361 0 93.4137V109.695C0 118.273 6.9535 125.227 15.5311 125.227H213.203C221.78 125.227 228.734 118.273 228.734 109.695V93.4137C228.734 84.8361 221.78 77.8826 213.203 77.8826Z" fill="#FF8F60"/>
<path d="M130.138 87.2271H32.8874C26.9259 87.2271 22.0933 92.0598 22.0933 98.0212C22.0933 103.983 26.9259 108.815 32.8874 108.815H130.138C136.099 108.815 140.932 103.983 140.932 98.0212C140.932 92.0598 136.099 87.2271 130.138 87.2271Z" fill="#9572F7"/>
<path d="M196.145 94.475H178.466C178.038 94.475 177.624 94.5656 177.236 94.7079C175.838 90.3722 171.774 87.2271 166.973 87.2271C161.019 87.2271 156.191 92.0547 156.191 98.0083C156.191 103.962 161.019 108.789 166.973 108.789C171.774 108.789 175.838 105.644 177.236 101.309C177.624 101.451 178.026 101.542 178.466 101.542H196.145C198.086 101.542 199.678 99.9497 199.678 98.0083C199.678 96.0669 198.086 94.475 196.145 94.475Z" fill="#9572F7"/>
<path d="M130.138 46.1216H32.8874C26.9259 46.1216 22.0933 50.9542 22.0933 56.9157C22.0933 62.8771 26.9259 67.7098 32.8874 67.7098H130.138C136.099 67.7098 140.932 62.8771 140.932 56.9157C140.932 50.9542 136.099 46.1216 130.138 46.1216Z" fill="#9572F7"/>
<path d="M196.145 53.3694H178.466C178.038 53.3694 177.624 53.46 177.236 53.6024C175.838 49.2666 171.774 46.1216 166.973 46.1216C161.019 46.1216 156.191 50.9491 156.191 56.9027C156.191 62.8563 161.019 67.6839 166.973 67.6839C171.774 67.6839 175.838 64.5388 177.236 60.2031C177.624 60.3454 178.026 60.436 178.466 60.436H196.145C198.086 60.436 199.678 58.8441 199.678 56.9027C199.678 54.9613 198.086 53.3694 196.145 53.3694Z" fill="#9572F7"/>
<path d="M198.5 80C161.767 80 132 109.779 132 146.5C132 183.221 161.779 213 198.5 213C235.221 213 265 183.221 265 146.5H198.5V80Z" fill="#72F79C"/>
<path d="M205 141H269C269 104.691 240.538 75.1354 205 74V141Z" fill="#72F79C"/>
</svg>
