<svg width="204" height="310" viewBox="0 0 204 310" fill="none" xmlns="http://www.w3.org/2000/svg">
<path d="M0.389166 107.33C-0.463712 97.4135 -1.41907 70.619 15.2649 44.794C41.4959 4.18539 88.9728 0.592053 98.5693 0.125516C107.696 -0.317861 159.292 -1.67446 187.824 38.8382C208.948 68.829 203.612 102.145 202.7 107.33C202.27 109.778 194.316 151.472 161.048 172.844C149.639 180.173 137.765 183.501 131.296 196.667C126.595 206.233 127.078 216.258 128.321 223.468H68.8177C66.7649 215.636 64.9137 203.642 68.8177 190.711C73.9119 173.836 86.3877 163.348 107.495 146.043C131.584 126.293 137.094 127.47 143.197 116.264C150.43 102.979 154.644 79.3741 140.221 62.6614C123.382 43.1463 94.5694 50.2403 92.619 50.7498C89.1513 51.6564 68.9731 57.3343 59.8923 77.5509C54.0279 90.6074 55.9386 102.714 56.9171 107.33H0.389166Z" fill="#F7CD72"/>
<path d="M130.965 250.269H71.4619V309.827H130.965V250.269Z" fill="#72F79C"/>
</svg>
