<svg width="1170" height="821" viewBox="0 0 1170 821" fill="none" xmlns="http://www.w3.org/2000/svg">
<path d="M47.0293 247.347C45.9705 245.082 45.7958 241.878 47.0293 239.215C49.2615 234.401 54.6046 234.581 55.1613 231.082C55.6143 228.222 52.1596 227.36 51.0953 222.95C50.0911 218.802 51.5647 213 55.1613 210.757C59.8987 207.793 64.434 213.442 71.4199 210.757C76.9159 208.644 79.3282 203.148 79.552 202.624C82.4828 195.671 77.2215 191.997 79.552 186.365C82.0244 180.383 88.9884 182.02 99.8766 174.172C104.641 170.739 107.419 167.458 112.069 161.978C122.635 149.523 121.68 145.069 128.328 141.653C134.113 138.678 142.567 138.078 148.653 141.653C155.824 145.866 156.239 153.846 160.845 153.846C164.753 153.846 167.727 148.115 168.977 145.714C173.72 136.577 169.578 132.238 173.043 125.388C177.076 117.414 188.352 112.081 197.434 113.195C205.042 114.123 208.016 119.198 213.692 117.261C218.02 115.782 220.536 111.383 221.825 109.128C225.328 102.994 222.976 100.772 225.891 96.9352C229.613 92.0339 234.268 94.5719 242.149 88.8028C246.259 85.8009 245.195 84.9658 250.281 80.6704C255.63 76.1566 261.06 71.5773 266.54 72.5379C272.816 73.6404 274.012 81.0906 278.732 80.6704C281.898 80.3865 282.406 76.948 286.864 72.5379C288.283 71.1352 297.474 62.3423 307.189 64.4055C312.718 65.5789 319.114 70.4147 319.382 76.5987C319.622 82.084 314.956 86.6851 311.25 88.7919C304.362 92.7162 299.428 88.781 294.991 92.8581C293.572 94.1626 293.163 95.407 290.925 105.051C287.383 120.323 287.683 120.345 286.859 121.311C281.636 127.462 273.4 122.173 262.468 129.443C260.989 130.426 257.218 132.985 254.336 137.576C249.19 145.768 252.492 151.499 250.27 161.968C249.877 163.818 246.051 180.798 234.012 186.359C232.331 187.134 230.475 187.697 209.621 186.359C192.091 185.235 189.848 184.613 185.23 186.359C177.622 189.241 171.886 195.42 168.972 198.553C163.296 204.66 162.04 208.694 156.779 210.746C155.398 211.286 148.718 213.808 144.587 210.746C142.458 209.168 142.529 207.242 140.52 206.68C138.048 205.986 135.385 208.191 132.388 210.746C126.691 215.603 127.46 217.443 124.256 218.878C123.438 219.244 122.657 219.451 112.064 218.878C105.749 218.54 105.209 218.42 103.932 218.878C100.941 219.948 100.182 221.918 95.7997 227.011C91.8538 231.595 89.8835 233.888 87.6677 235.143C81.1893 238.816 75.4587 232.234 71.409 235.143C66.9173 238.369 71.9548 246.992 67.343 251.403C62.6767 255.867 50.162 254.066 47.0184 247.336L47.0293 247.347Z" fill="#81B3F2"/>
<path d="M374.178 183.254C373.119 180.989 372.944 177.785 374.178 175.121C376.41 170.307 381.753 170.487 382.31 166.989C382.763 164.129 379.308 163.266 378.244 158.856C377.24 154.708 378.713 148.906 382.31 146.663C387.047 143.699 391.582 149.349 398.568 146.663C404.064 144.551 406.477 139.055 406.7 138.531C409.631 131.577 404.37 127.904 406.7 122.271C409.173 116.289 416.137 117.927 427.025 110.078C431.79 106.645 434.568 103.365 439.218 97.8849C449.784 85.4297 448.829 80.976 455.476 77.5593C461.262 74.5846 469.716 73.9843 475.801 77.5593C482.972 81.7728 483.387 89.7525 487.994 89.7525C491.901 89.7525 494.876 84.0215 496.126 81.62C500.868 72.4833 496.726 68.1442 500.192 61.2944C504.225 53.3202 515.501 47.9877 524.582 49.1012C532.19 50.029 535.165 55.105 540.841 53.1674C545.169 51.6883 547.685 47.2891 548.973 45.0349C552.477 38.9001 550.125 36.6787 553.039 32.8417C556.761 27.9404 561.417 30.4784 569.298 24.7093C573.407 21.7074 572.343 20.8723 577.43 16.5768C582.778 12.0631 588.209 7.48379 593.688 8.44441C599.965 9.54692 601.16 16.9971 605.881 16.5768C609.046 16.293 609.554 12.8545 614.013 8.44441C615.432 7.0417 624.623 -1.75116 634.338 0.311966C639.866 1.48544 646.263 6.32124 646.53 12.5052C646.77 17.9905 642.104 22.5916 638.398 24.6984C631.51 28.6227 626.577 24.6875 622.14 28.7646C620.721 30.0691 620.311 31.3135 618.074 40.9578C614.531 56.2293 614.832 56.2512 614.008 57.2172C608.784 63.3684 600.549 58.0796 589.617 65.3497C588.138 66.3321 584.367 68.8919 581.485 73.4821C576.338 81.6746 579.64 87.4055 577.419 97.874C577.026 99.7242 573.2 116.704 561.16 122.266C559.479 123.041 557.624 123.603 536.769 122.266C519.239 121.141 516.996 120.519 512.379 122.266C504.771 125.148 499.035 131.326 496.12 134.459C490.444 140.567 489.189 144.6 483.928 146.652C482.547 147.193 475.866 149.714 471.735 146.652C469.606 145.075 469.677 143.148 467.669 142.586C465.197 141.893 462.533 144.098 459.537 146.652C453.839 151.51 454.609 153.349 451.405 154.785C450.586 155.15 449.806 155.358 439.212 154.785C432.898 154.446 432.357 154.326 431.08 154.785C428.089 155.854 427.331 157.825 422.948 162.917C419.002 167.502 417.032 169.794 414.816 171.05C408.338 174.723 402.607 168.14 398.557 171.05C394.066 174.275 399.103 182.899 394.491 187.309C389.825 191.774 377.31 189.973 374.167 183.243L374.178 183.254Z" fill="#81B3F2"/>
<path d="M465.218 186.103C464.4 184.356 464.269 181.889 465.218 179.837C466.937 176.126 471.058 176.262 471.484 173.571C471.833 171.366 469.17 170.706 468.351 167.305C467.576 164.107 468.711 159.637 471.484 157.907C475.135 155.625 478.628 159.975 484.015 157.907C488.25 156.28 490.111 152.045 490.28 151.641C492.54 146.281 488.485 143.448 490.28 139.109C492.185 134.503 497.55 135.764 505.944 129.711C509.612 127.063 511.756 124.536 515.342 120.312C523.485 110.711 522.748 107.278 527.873 104.647C532.332 102.355 538.849 101.891 543.537 104.647C549.066 107.895 549.382 114.046 552.935 114.046C555.948 114.046 558.24 109.631 559.201 107.78C562.857 100.739 559.664 97.3937 562.333 92.1158C565.439 85.97 574.133 81.8601 581.13 82.7171C586.991 83.4321 589.284 87.3455 593.661 85.85C597.001 84.7092 598.933 81.3198 599.926 79.5842C602.628 74.8575 600.81 73.1437 603.059 70.1855C605.924 66.4085 609.516 68.3625 615.59 63.9197C618.756 61.6055 617.937 60.9614 621.856 57.6539C625.982 54.1771 630.162 50.6458 634.387 51.3881C639.222 52.234 640.144 57.9813 643.785 57.6539C646.224 57.4355 646.617 54.7829 650.05 51.3881C651.147 50.3074 658.231 43.5285 665.714 45.1223C669.971 46.0283 674.905 49.7561 675.112 54.521C675.298 58.7455 671.701 62.2932 668.847 63.9197C663.536 66.9434 659.738 63.9087 656.316 67.0526C655.219 68.0568 654.908 69.0175 653.183 76.4513C650.454 88.2242 650.683 88.2406 650.05 88.9829C646.022 93.7204 639.681 89.6487 631.254 95.2487C630.119 96.0073 627.21 97.9777 624.988 101.514C621.021 107.829 623.569 112.245 621.856 120.312C621.555 121.736 618.603 134.825 609.325 139.109C608.031 139.704 606.601 140.141 590.528 139.109C577.02 138.241 575.29 137.761 571.732 139.109C565.865 141.331 561.444 146.09 559.201 148.508C554.829 153.218 553.857 156.324 549.802 157.907C548.738 158.322 543.591 160.27 540.404 157.907C538.761 156.69 538.816 155.21 537.271 154.774C535.361 154.239 533.314 155.942 531.006 157.907C526.612 161.651 527.207 163.07 524.74 164.172C524.107 164.456 523.507 164.615 515.342 164.172C510.474 163.91 510.059 163.818 509.077 164.172C506.773 164.997 506.19 166.514 502.811 170.438C499.771 173.97 498.249 175.738 496.546 176.704C491.552 179.537 487.137 174.461 484.015 176.704C480.554 179.193 484.435 185.835 480.882 189.236C477.285 192.674 467.641 191.288 465.218 186.103Z" fill="#81B3F2"/>
<path d="M386.523 183.09H370.264C366.198 303.696 362.132 424.296 358.072 544.902H386.528V183.09H386.523Z" fill="#81B3F2"/>
<path d="M386.523 183.09H402.782C406.848 303.696 410.914 424.296 414.974 544.902H386.518V183.09H386.523Z" fill="#5D8DC1"/>
<path d="M471.887 183.09H455.629C451.563 303.696 447.497 424.296 443.436 544.902H471.893V183.09H471.887Z" fill="#81B3F2"/>
<path d="M471.887 183.09H488.146C492.212 303.696 496.278 424.296 500.339 544.902H471.882V183.09H471.887Z" fill="#5D8DC1"/>
<path d="M83.6178 255.474H34.8364V682.329H83.6178V255.474Z" fill="#81B3F2"/>
<path d="M91.1987 251.168H26.1587V259.3H91.1987V251.168Z" fill="#5D8DC1"/>
<path d="M455.629 496.118H0V683.121H455.629V496.118Z" fill="#81B3F2"/>
<path d="M138.555 516.444H106.033V548.968H138.555V516.444Z" fill="#5D8DC1"/>
<path d="M187.337 516.444H154.814V548.968H187.337V516.444Z" fill="#5D8DC1"/>
<path d="M333.676 516.444H301.153V548.968H333.676V516.444Z" fill="#5D8DC1"/>
<path d="M431.238 516.444H398.715V548.968H431.238V516.444Z" fill="#5D8DC1"/>
<path d="M284.894 516.444H252.372V548.968H284.894V516.444Z" fill="#5D8DC1"/>
<path d="M382.457 516.444H349.934V548.968H382.457V516.444Z" fill="#5D8DC1"/>
<path d="M236.113 516.444H203.59V548.968H236.113V516.444Z" fill="#5D8DC1"/>
<path d="M138.555 565.228H106.033V597.752H138.555V565.228Z" fill="#5D8DC1"/>
<path d="M187.337 565.228H154.814V597.752H187.337V565.228Z" fill="#5D8DC1"/>
<path d="M333.676 565.228H301.153V597.752H333.676V565.228Z" fill="#5D8DC1"/>
<path d="M431.238 565.228H398.715V597.752H431.238V565.228Z" fill="#5D8DC1"/>
<path d="M284.894 565.228H252.372V597.752H284.894V565.228Z" fill="#5D8DC1"/>
<path d="M382.457 565.228H349.934V597.752H382.457V565.228Z" fill="#5D8DC1"/>
<path d="M236.113 565.228H203.59V597.752H236.113V565.228Z" fill="#5D8DC1"/>
<path d="M138.555 614.011H106.033V646.536H138.555V614.011Z" fill="#5D8DC1"/>
<path d="M91.6189 515.898H59.0962V548.422H91.6189V515.898Z" fill="#5D8DC1"/>
<path d="M91.6189 564.682H59.0962V597.206H91.6189V564.682Z" fill="#5D8DC1"/>
<path d="M91.6189 613.465H59.0962V645.99H91.6189V613.465Z" fill="#5D8DC1"/>
<path d="M44.1365 515.898H11.6138V548.422H44.1365V515.898Z" fill="#5D8DC1"/>
<path d="M44.1365 564.682H11.6138V597.206H44.1365V564.682Z" fill="#5D8DC1"/>
<path d="M44.1365 613.465H11.6138V645.99H44.1365V613.465Z" fill="#5D8DC1"/>
<path d="M187.337 614.011H154.814V646.536H187.337V614.011Z" fill="#5D8DC1"/>
<path d="M333.676 614.011H301.153V646.536H333.676V614.011Z" fill="#5D8DC1"/>
<path d="M431.238 614.011H398.715V646.536H431.238V614.011Z" fill="#5D8DC1"/>
<path d="M284.894 614.011H252.372V646.536H284.894V614.011Z" fill="#5D8DC1"/>
<path d="M382.457 614.011H349.934V646.536H382.457V614.011Z" fill="#5D8DC1"/>
<path d="M236.113 614.011H203.59V646.536H236.113V614.011Z" fill="#5D8DC1"/>
<path d="M679.206 536.769H451.563V683.121H679.206V536.769Z" fill="#81B3F2"/>
<path d="M682.311 459.533C687.07 488.166 690.743 530.913 682.311 581.492C675.118 624.643 661.506 659.105 649.788 683.126H832.715C821.674 654.772 809.837 616.167 804.259 569.299C799.101 525.924 800.837 488.34 804.259 459.538H682.305L682.311 459.533Z" fill="#81B3F2"/>
<path d="M843.899 500.184C847.79 523.61 850.797 558.585 843.899 599.968C838.01 635.275 826.876 663.466 817.292 683.12H966.96C957.922 659.924 948.24 628.333 943.677 589.99C939.458 554.502 940.877 523.752 943.677 500.184H843.899Z" fill="#81B3F2"/>
<path d="M685.28 487.986C686.355 500.222 686.944 513.851 686.622 528.637H800.597C800.154 514.108 800.416 500.506 801.131 487.986H685.28Z" fill="#5D8DC1"/>
<path d="M941.112 532.703H847.724C848.265 545.011 848.117 558.651 846.791 573.354H942.394C941.155 558.842 940.833 545.229 941.112 532.703Z" fill="#5D8DC1"/>
<path d="M756.263 466.612C754.659 463.173 754.391 458.316 756.263 454.277C759.647 446.974 767.757 447.241 768.598 441.942C769.285 437.608 764.046 436.298 762.43 429.607C760.908 423.308 763.145 414.51 768.598 411.098C775.786 406.607 782.668 415.17 793.272 411.098C801.612 407.895 805.274 399.555 805.607 398.763C810.055 388.213 802.07 382.635 805.607 374.088C809.356 365.016 819.922 367.5 836.448 355.58C843.674 350.367 847.893 345.395 854.956 337.071C870.99 318.17 869.539 311.413 879.63 306.228C888.406 301.72 901.237 300.803 910.472 306.228C921.354 312.625 921.982 324.731 928.979 324.736C934.906 324.736 939.425 316.042 941.313 312.401C948.512 298.538 942.225 291.955 947.481 281.558C953.599 269.463 970.709 261.369 984.49 263.05C996.033 264.458 1000.55 272.159 1009.16 269.217C1015.74 266.974 1019.54 260.304 1021.5 256.882C1026.81 247.576 1023.25 244.203 1027.67 238.374C1033.31 230.94 1040.38 234.783 1052.34 226.039C1058.57 221.482 1056.96 220.215 1064.67 213.704C1072.8 206.854 1081.03 199.906 1089.35 201.369C1098.87 203.039 1100.69 214.343 1107.86 213.704C1112.66 213.278 1113.43 208.055 1120.19 201.369C1122.35 199.24 1136.3 185.901 1151.03 189.034C1159.42 190.813 1169.13 198.154 1169.54 207.542C1169.91 215.865 1162.82 222.852 1157.21 226.05C1146.75 231.999 1139.27 226.034 1132.53 232.217C1130.38 234.199 1129.76 236.082 1126.36 250.726C1120.99 273.9 1121.44 273.933 1120.2 275.401C1112.27 284.729 1099.77 276.711 1083.19 287.736C1080.95 289.226 1075.22 293.113 1070.85 300.072C1063.04 312.505 1068.06 321.2 1064.69 337.082C1064.09 339.888 1058.28 365.655 1040.01 374.093C1037.46 375.272 1034.65 376.124 1003 374.093C976.407 372.39 973.001 371.441 965.993 374.093C954.445 378.465 945.74 387.836 941.319 392.601C932.712 401.869 930.802 407.987 922.812 411.109C920.716 411.928 910.586 415.76 904.305 411.109C901.074 408.713 901.183 405.793 898.137 404.942C894.382 403.888 890.344 407.24 885.803 411.109C877.152 418.478 878.326 421.272 873.468 423.445C872.224 424.001 871.04 424.312 854.961 423.445C845.377 422.926 844.564 422.751 842.627 423.445C838.086 425.071 836.94 428.051 830.292 435.78C824.305 442.733 821.314 446.215 817.957 448.115C808.128 453.687 799.428 443.699 793.283 448.115C786.466 453.011 794.113 466.099 787.116 472.79C780.037 479.564 761.05 476.835 756.274 466.623L756.263 466.612Z" fill="#81B3F2"/>
<path d="M48.7919 773.74H41.7514C40.395 773.74 39.2954 774.84 39.2954 776.196V807.138C39.2954 808.494 40.395 809.594 41.7514 809.594H48.7919C50.1483 809.594 51.2479 808.494 51.2479 807.138V776.196C51.2479 774.84 50.1483 773.74 48.7919 773.74Z" fill="#C19C59"/>
<path d="M873.403 779.051H866.363C865.006 779.051 863.907 780.15 863.907 781.507V812.448C863.907 813.805 865.006 814.904 866.363 814.904H873.403C874.76 814.904 875.859 813.805 875.859 812.448V781.507C875.859 780.15 874.76 779.051 873.403 779.051Z" fill="#C19C59"/>
<path d="M481.477 679.278C396.303 679.049 291.307 678.64 164.622 678.023C160.365 677.619 148.117 677.029 136.973 684.933C132.896 687.825 130.036 691.095 128.088 693.818C98.7958 730.027 69.5041 766.23 40.2069 802.438C39.6175 804.245 38.8207 807.727 40.2069 811.324C42.4719 817.197 49.6706 821.017 57.9773 820.21H481.471V679.273L481.477 679.278Z" fill="#C19C59"/>
<path d="M433.672 679.278C518.846 679.049 623.842 678.64 750.527 678.023C754.784 677.619 767.031 677.029 778.176 684.933C782.253 687.825 785.113 691.095 787.061 693.818C816.353 730.027 845.645 766.23 874.942 802.438C875.532 804.245 876.328 807.727 874.942 811.324C872.677 817.197 865.478 821.017 857.172 820.21H433.678V679.273L433.672 679.278Z" fill="#C19C59"/>
<path d="M771.992 271.777H143.162C138.601 271.777 134.904 275.474 134.904 280.035V645.968C134.904 650.529 138.601 654.226 143.162 654.226H771.992C776.553 654.226 780.25 650.529 780.25 645.968V280.035C780.25 275.474 776.553 271.777 771.992 271.777Z" fill="#C19C59"/>
<path d="M748.087 285.941H167.061C162.501 285.941 158.804 289.638 158.804 294.199V631.799C158.804 636.359 162.501 640.057 167.061 640.057H748.087C752.648 640.057 756.345 636.359 756.345 631.799V294.199C756.345 289.638 752.648 285.941 748.087 285.941Z" fill="#F1CE80"/>
<path d="M481.624 654.952C396.45 654.722 291.454 654.313 164.769 653.696C160.512 653.292 148.265 652.703 137.12 660.606C133.043 663.499 130.183 666.768 128.235 669.492C98.9433 705.7 69.6516 741.903 40.3544 778.112C39.7649 779.918 38.9681 783.401 40.3544 786.997C42.6193 792.87 49.8181 796.691 58.1248 795.883H481.619V654.946L481.624 654.952Z" fill="#D8B56F"/>
<path d="M433.82 654.952C518.993 654.722 623.99 654.313 750.675 653.696C754.932 653.292 767.179 652.703 778.324 660.606C782.401 663.499 785.26 666.768 787.209 669.492C816.501 705.7 845.792 741.903 875.09 778.112C875.679 779.918 876.476 783.401 875.09 786.997C872.825 792.87 865.626 796.691 857.319 795.883H433.825V654.946L433.82 654.952Z" fill="#D8B56F"/>
<path d="M449.964 678.126H179.342C168.726 690.069 158.116 702.005 147.501 713.947C147.386 714.155 145.307 718.079 147.501 721.905C149.078 724.656 152.211 726.228 155.458 725.884H449.958V678.126H449.964Z" fill="#C19C59"/>
<path d="M449.08 678.126H719.702C730.317 690.069 740.927 702.005 751.542 713.947C751.657 714.155 753.736 718.079 751.542 721.905C749.965 724.656 746.832 726.228 743.585 725.884H449.085V678.126H449.08Z" fill="#C19C59"/>
<path d="M407.383 737.886H511.353C516.134 749.839 520.915 761.787 525.696 773.74H385.868C391.844 761.787 397.821 749.839 403.797 737.886H407.383Z" fill="#C19C59"/>
<path d="M577.211 230.433H257.824C245.646 230.433 235.774 240.305 235.774 252.483V542.969C235.774 555.148 245.646 565.02 257.824 565.02H577.211C589.389 565.02 599.26 555.148 599.26 542.969V252.483C599.26 240.305 589.389 230.433 577.211 230.433Z" fill="#96F4A4"/>
<path d="M599.26 255.419V243.204C599.26 231.028 589.387 221.154 577.211 221.154H257.829C245.647 221.154 235.78 231.028 235.78 243.204V255.419H599.266H599.26Z" fill="#6ECC7A"/>
<path d="M257.878 245.595C261.947 245.595 265.246 242.296 265.246 238.227C265.246 234.157 261.947 230.858 257.878 230.858C253.809 230.858 250.51 234.157 250.51 238.227C250.51 242.296 253.809 245.595 257.878 245.595Z" fill="#E67A84"/>
<path d="M277.526 245.595C281.595 245.595 284.894 242.296 284.894 238.227C284.894 234.157 281.595 230.858 277.526 230.858C273.457 230.858 270.158 234.157 270.158 238.227C270.158 242.296 273.457 245.595 277.526 245.595Z" fill="#F0956A"/>
<path d="M569.789 353.664H265.246C262.534 353.664 260.334 355.863 260.334 358.576C260.334 361.289 262.534 363.488 265.246 363.488H569.789C572.502 363.488 574.701 361.289 574.701 358.576C574.701 355.863 572.502 353.664 569.789 353.664Z" fill="#6ECC7A"/>
<path d="M569.789 378.225H265.246C262.534 378.225 260.334 380.424 260.334 383.137C260.334 385.85 262.534 388.049 265.246 388.049H569.789C572.502 388.049 574.701 385.85 574.701 383.137C574.701 380.424 572.502 378.225 569.789 378.225Z" fill="#6ECC7A"/>
<path d="M525.581 402.786H265.246C262.534 402.786 260.334 404.985 260.334 407.698C260.334 410.411 262.534 412.61 265.246 412.61H525.581C528.294 412.61 530.493 410.411 530.493 407.698C530.493 404.985 528.294 402.786 525.581 402.786Z" fill="#6ECC7A"/>
<path d="M569.789 491.206H265.246C262.534 491.206 260.334 493.405 260.334 496.118C260.334 498.831 262.534 501.03 265.246 501.03H569.789C572.502 501.03 574.701 498.831 574.701 496.118C574.701 493.405 572.502 491.206 569.789 491.206Z" fill="#6ECC7A"/>
<path d="M397.87 515.767H265.246C262.534 515.767 260.334 517.966 260.334 520.679C260.334 523.392 262.534 525.591 265.246 525.591H397.87C400.583 525.591 402.782 523.392 402.782 520.679C402.782 517.966 400.583 515.767 397.87 515.767Z" fill="#6ECC7A"/>
<path d="M564.877 309.454H270.158C264.733 309.454 260.334 313.852 260.334 319.278C260.334 324.704 264.733 329.103 270.158 329.103H564.877C570.302 329.103 574.701 324.704 574.701 319.278C574.701 313.852 570.302 309.454 564.877 309.454Z" fill="#6ECC7A"/>
<path d="M456.813 451.908H270.158C264.733 451.908 260.334 456.307 260.334 461.733C260.334 467.159 264.733 471.557 270.158 471.557H456.813C462.239 471.557 466.637 467.159 466.637 461.733C466.637 456.307 462.239 451.908 456.813 451.908Z" fill="#6ECC7A"/>
<path d="M699.999 350.717H479.408C467.231 350.717 457.359 360.589 457.359 372.767V572.312C457.359 584.49 467.231 594.362 479.408 594.362H699.999C712.177 594.362 722.049 584.49 722.049 572.312V372.767C722.049 360.589 712.177 350.717 699.999 350.717Z" fill="#9073EF"/>
<path d="M722.049 368.914V360.017C722.049 351.148 714.861 343.959 705.992 343.959H473.416C464.547 343.959 457.359 351.148 457.359 360.017V368.914H722.049Z" fill="#6957C4"/>
<path d="M476.811 361.381C479.716 361.381 482.072 359.026 482.072 356.12C482.072 353.214 479.716 350.858 476.811 350.858C473.905 350.858 471.549 353.214 471.549 356.12C471.549 359.026 473.905 361.381 476.811 361.381Z" fill="#E67A84"/>
<path d="M491.394 361.381C494.299 361.381 496.655 359.026 496.655 356.12C496.655 353.214 494.299 350.858 491.394 350.858C488.488 350.858 486.132 353.214 486.132 356.12C486.132 359.026 488.488 361.381 491.394 361.381Z" fill="#F0956A"/>
<path d="M692.588 393.507H486.285V521.225H692.588V393.507Z" fill="#6957C4"/>
<path d="M564.876 427.347V491.206L633.644 461.733L564.876 427.347Z" fill="#9073EF"/>
<path d="M687.676 535.961H491.197C488.484 535.961 486.285 538.161 486.285 540.874C486.285 543.587 488.484 545.786 491.197 545.786H687.676C690.389 545.786 692.588 543.587 692.588 540.874C692.588 538.161 690.389 535.961 687.676 535.961Z" fill="#6957C4"/>
<path d="M609.084 550.698H491.197C488.484 550.698 486.285 552.898 486.285 555.61C486.285 558.323 488.484 560.523 491.197 560.523H609.084C611.797 560.523 613.996 558.323 613.996 555.61C613.996 552.898 611.797 550.698 609.084 550.698Z" fill="#6957C4"/>
</svg>
