<svg width="199" height="363" viewBox="0 0 199 363" fill="none" xmlns="http://www.w3.org/2000/svg">
<path d="M187.01 211.91H12C5.37258 211.91 0 217.283 0 223.91V350.56C0 357.187 5.37258 362.56 12 362.56H187.01C193.637 362.56 199.01 357.187 199.01 350.56V223.91C199.01 217.283 193.637 211.91 187.01 211.91Z" fill="#72B4F7"/>
<path d="M187 211.91H11.7301C11.7301 211.91 11.6501 211.91 11.6101 211.91C6.54006 211.96 4.45006 218.45 8.44006 221.57L44.1501 249.47L97.6201 291.43C99.6001 292.98 102.38 292.98 104.36 291.43L157.83 249.47L193.14 221.89C196.45 219.31 194.87 213.92 190.91 212.52C189.66 212.08 188.4 211.92 187 211.92V211.91Z" fill="#9572F7"/>
<path d="M186.86 221.24H11.5802C11.5802 221.24 11.5002 221.24 11.4602 221.24C6.39015 221.19 4.30016 214.7 8.29016 211.58L44.0002 183.68L97.4701 141.72C99.4501 140.17 102.23 140.17 104.21 141.72L157.68 183.68L192.99 211.26C196.3 213.84 194.72 219.23 190.76 220.63C189.51 221.07 188.25 221.23 186.85 221.23L186.86 221.24Z" fill="#9572F7"/>
<path d="M160.41 142.73C175.52 127.6 184.86 106.71 184.86 83.64C184.86 37.45 147.42 0 101.22 0C55.0201 0 17.5801 37.44 17.5801 83.64C17.5801 106.4 26.6801 127.02 41.4301 142.1H41.4101C41.4101 142.1 41.4801 142.17 41.6201 142.3C42.1101 142.8 42.6201 143.29 43.1301 143.78C47.7101 148.32 60.0101 160.86 62.0201 166.51C63.6301 171.02 68.5101 190.07 67.4901 195.41H134.89C134.89 195.41 137.7 173.12 140.75 165.87C143.38 159.62 159.58 143.53 160.32 142.79C160.33 142.78 160.35 142.76 160.36 142.75L160.39 142.72L160.41 142.73Z" fill="#F7CD72"/>
<path d="M135.24 202.38H66.27V213.42H135.24V202.38Z" fill="#F77282"/>
<path d="M135.29 216.71H66.3203V227.75H135.29V216.71Z" fill="#F77282"/>
<path d="M135.71 231.26H102.77C102.63 231.26 102.5 231.24 102.36 231.24C101.79 231.24 101.21 231.24 100.63 231.26H66.7402V242.3H83.3502C82.0402 260.64 93.4902 263.92 102.36 263.92C111.23 263.92 118.7 256.6 118.7 247.58C118.7 245.73 118.38 243.96 117.81 242.3H135.71V231.26Z" fill="#F77282"/>
<path d="M31.0601 59.12V79.95L35.6001 75.78V64.3L31.0601 59.12Z" fill="#221F20"/>
<path d="M32.0601 57.64H52.8901L48.7201 62.19H37.2301L32.0601 57.64Z" fill="#221F20"/>
<path d="M32.0601 106.65H52.8901L48.7201 102.11H37.2301L32.0601 106.65Z" fill="#221F20"/>
<path d="M31.0601 83.55V104.38L35.6001 100.21V88.73L31.0601 83.55Z" fill="#221F20"/>
<path d="M54.1201 59.12V79.95L49.5801 75.78V64.3L54.1201 59.12Z" fill="#221F20"/>
<path d="M54.1201 83.55V104.38L49.5801 100.21V88.73L54.1201 83.55Z" fill="#221F20"/>
<path d="M62.74 59.12V79.95L67.28 75.78V64.3L62.74 59.12Z" fill="#221F20"/>
<path d="M63.74 57.64H84.56L80.4 62.19H68.91L63.74 57.64Z" fill="#221F20"/>
<path d="M63.74 106.65H84.56L80.4 102.11H68.91L63.74 106.65Z" fill="#221F20"/>
<path d="M62.74 83.55V104.38L67.28 100.21V88.73L62.74 83.55Z" fill="#221F20"/>
<path d="M85.8 59.12V79.95L81.26 75.78V64.3L85.8 59.12Z" fill="#221F20"/>
<path d="M85.8 83.55V104.38L81.26 100.21V88.73L85.8 83.55Z" fill="#221F20"/>
<path d="M106.65 58.74V79.56L111.19 75.4V63.91L106.65 58.74Z" fill="#221F20"/>
<path d="M107.65 57.26H128.48L124.31 61.8H112.82L107.65 57.26Z" fill="#221F20"/>
<path d="M107.65 106.26H128.48L124.31 101.72H112.82L107.65 106.26Z" fill="#221F20"/>
<path d="M106.65 83.16V103.99L111.19 99.83V88.34L106.65 83.16Z" fill="#221F20"/>
<path d="M129.71 58.74V79.56L125.17 75.4V63.91L129.71 58.74Z" fill="#221F20"/>
<path d="M129.71 83.16V103.99L125.17 99.83V88.34L129.71 83.16Z" fill="#221F20"/>
<path d="M140.88 58.74V79.56L145.42 75.4V63.91L140.88 58.74Z" fill="#221F20"/>
<path d="M141.88 57.26H162.7L158.54 61.8H147.05L141.88 57.26Z" fill="#221F20"/>
<path d="M141.88 81.37H162.7L158.54 85.92H147.05L141.88 81.37Z" fill="#221F20"/>
<path d="M141.88 106.26H162.7L158.54 101.72H147.05L141.88 106.26Z" fill="#221F20"/>
<path d="M140.88 83.16V103.99L145.42 99.83V88.34L140.88 83.16Z" fill="#221F20"/>
<path d="M163.94 83.16V103.99L159.4 99.83V88.34L163.94 83.16Z" fill="#221F20"/>
<path d="M96.6502 76.47C97.8873 76.47 98.8902 75.4671 98.8902 74.23C98.8902 72.9929 97.8873 71.99 96.6502 71.99C95.413 71.99 94.4102 72.9929 94.4102 74.23C94.4102 75.4671 95.413 76.47 96.6502 76.47Z" fill="#221F20"/>
<path d="M96.6502 90.48C97.8873 90.48 98.8902 89.4771 98.8902 88.24C98.8902 87.0029 97.8873 86 96.6502 86C95.413 86 94.4102 87.0029 94.4102 88.24C94.4102 89.4771 95.413 90.48 96.6502 90.48Z" fill="#221F20"/>
</svg>
