<svg width="1042" height="966" viewBox="0 0 1042 966" fill="none" xmlns="http://www.w3.org/2000/svg">
<path d="M591.821 0H371.273C359.098 0 349.228 9.87029 349.228 22.0459V221.55C349.228 233.726 359.098 243.596 371.273 243.596H591.821C603.996 243.596 613.866 233.726 613.866 221.55V22.0459C613.866 9.87029 603.996 0 591.821 0Z" fill="#9073EF"/>
<path d="M476.483 121.362H383.059C380.347 121.362 378.148 123.56 378.148 126.273C378.148 128.985 380.347 131.184 383.059 131.184H476.483C479.196 131.184 481.394 128.985 481.394 126.273C481.394 123.56 479.196 121.362 476.483 121.362Z" fill="#6957C4"/>
<path d="M476.598 101.477H383.174C380.462 101.477 378.263 103.676 378.263 106.388C378.263 109.1 380.462 111.299 383.174 111.299H476.598C479.31 111.299 481.509 109.1 481.509 106.388C481.509 103.676 479.31 101.477 476.598 101.477Z" fill="#6957C4"/>
<path d="M476.598 81.8318H383.174C380.462 81.8318 378.263 84.0306 378.263 86.743C378.263 89.4554 380.462 91.6542 383.174 91.6542H476.598C479.31 91.6542 481.509 89.4554 481.509 86.743C481.509 84.0306 479.31 81.8318 476.598 81.8318Z" fill="#6957C4"/>
<path d="M537.249 47.5735H383.747C379.248 47.5735 375.6 51.2211 375.6 55.7206V55.7261C375.6 60.2257 379.248 63.8733 383.747 63.8733H537.249C541.748 63.8733 545.396 60.2257 545.396 55.7261V55.7206C545.396 51.2211 541.748 47.5735 537.249 47.5735Z" fill="#6957C4"/>
<path d="M589.552 81.2861H496.242V130.398H589.552V81.2861Z" fill="#6957C4"/>
<path d="M822.093 63.3003H601.545C589.37 63.3003 579.5 73.1706 579.5 85.3462V284.851C579.5 297.026 589.37 306.897 601.545 306.897H822.093C834.268 306.897 844.138 297.026 844.138 284.851V85.3462C844.138 73.1706 834.268 63.3003 822.093 63.3003Z" fill="#9073EF"/>
<path d="M844.138 81.4934V72.5986C844.138 63.7312 836.952 56.5444 828.085 56.5444H595.554C586.686 56.5444 579.5 63.7312 579.5 72.5986V81.4934H844.138Z" fill="#6957C4"/>
<path d="M706.755 248.508H613.331C610.619 248.508 608.42 250.707 608.42 253.419C608.42 256.131 610.619 258.33 613.331 258.33H706.755C709.468 258.33 711.666 256.131 711.666 253.419C711.666 250.707 709.468 248.508 706.755 248.508Z" fill="#6957C4"/>
<path d="M706.87 228.623H613.446C610.734 228.623 608.535 230.821 608.535 233.534C608.535 236.246 610.734 238.445 613.446 238.445H706.87C709.582 238.445 711.781 236.246 711.781 233.534C711.781 230.821 709.582 228.623 706.87 228.623Z" fill="#6957C4"/>
<path d="M706.87 208.978H613.446C610.734 208.978 608.535 211.177 608.535 213.889C608.535 216.601 610.734 218.8 613.446 218.8H706.87C709.582 218.8 711.781 216.601 711.781 213.889C711.781 211.177 709.582 208.978 706.87 208.978Z" fill="#6957C4"/>
<path d="M809.772 184.662H613.331C610.619 184.662 608.42 186.861 608.42 189.573C608.42 192.285 610.619 194.484 613.331 194.484H809.772C812.484 194.484 814.683 192.285 814.683 189.573C814.683 186.861 812.484 184.662 809.772 184.662Z" fill="#6957C4"/>
<path d="M810.002 164.777H613.561C610.849 164.777 608.65 166.976 608.65 169.688C608.65 172.4 610.849 174.599 613.561 174.599H810.002C812.714 174.599 814.913 172.4 814.913 169.688C814.913 166.976 812.714 164.777 810.002 164.777Z" fill="#6957C4"/>
<path d="M810.002 145.132H613.561C610.849 145.132 608.65 147.331 608.65 150.043C608.65 152.755 610.849 154.954 613.561 154.954H810.002C812.714 154.954 814.913 152.755 814.913 150.043C814.913 147.331 812.714 145.132 810.002 145.132Z" fill="#6957C4"/>
<path d="M767.521 110.874H614.019C609.52 110.874 605.873 114.521 605.873 119.021V119.026C605.873 123.526 609.52 127.173 614.019 127.173H767.521C772.021 127.173 775.668 123.526 775.668 119.026V119.021C775.668 114.521 772.021 110.874 767.521 110.874Z" fill="#6957C4"/>
<path d="M296.615 68.2114H76.0665C63.8914 68.2114 54.0215 78.0817 54.0215 90.2573V289.762C54.0215 301.937 63.8914 311.808 76.0665 311.808H296.615C308.79 311.808 318.66 301.937 318.66 289.762V90.2573C318.66 78.0817 308.79 68.2114 296.615 68.2114Z" fill="#9073EF"/>
<path d="M318.66 86.4048V77.51C318.66 68.6426 311.473 61.4558 302.606 61.4558H70.0751C61.2079 61.4558 54.0215 68.6426 54.0215 77.51V86.4048H318.66Z" fill="#6957C4"/>
<path d="M284.294 189.573H87.8529C85.1406 189.573 82.9419 191.772 82.9419 194.484C82.9419 197.197 85.1406 199.395 87.8529 199.395H284.294C287.006 199.395 289.205 197.197 289.205 194.484C289.205 191.772 287.006 189.573 284.294 189.573Z" fill="#6957C4"/>
<path d="M284.523 169.688H88.0819C85.3696 169.688 83.1709 171.887 83.1709 174.599C83.1709 177.312 85.3696 179.51 88.0819 179.51H284.523C287.235 179.51 289.434 177.312 289.434 174.599C289.434 171.887 287.235 169.688 284.523 169.688Z" fill="#6957C4"/>
<path d="M284.523 150.043H88.0819C85.3696 150.043 83.1709 152.242 83.1709 154.954C83.1709 157.667 85.3696 159.866 88.0819 159.866H284.523C287.235 159.866 289.434 157.667 289.434 154.954C289.434 152.242 287.235 150.043 284.523 150.043Z" fill="#6957C4"/>
<path d="M242.042 115.785H88.5404C84.041 115.785 80.3936 119.432 80.3936 123.932V123.937C80.3936 128.437 84.041 132.084 88.5404 132.084H242.042C246.542 132.084 250.189 128.437 250.189 123.937V123.932C250.189 119.432 246.542 115.785 242.042 115.785Z" fill="#6957C4"/>
<path d="M814.912 208.978H721.603V258.09H814.912V208.978Z" fill="#6957C4"/>
<path d="M482.578 226.522C487.105 226.522 490.774 222.852 490.774 218.325C490.774 213.799 487.105 210.129 482.578 210.129C478.052 210.129 474.382 213.799 474.382 218.325C474.382 222.852 478.052 226.522 482.578 226.522Z" fill="#E67A84"/>
<path d="M505.284 226.522C509.81 226.522 513.48 222.852 513.48 218.325C513.48 213.799 509.81 210.129 505.284 210.129C500.757 210.129 497.088 213.799 497.088 218.325C497.088 222.852 500.757 226.522 505.284 226.522Z" fill="#F0956A"/>
<path d="M813.696 498.396H502.239C499.527 498.396 497.328 500.594 497.328 503.307V508.785C497.328 511.498 499.527 513.697 502.239 513.697H813.696C816.408 513.697 818.607 511.498 818.607 508.785V503.307C818.607 500.594 816.408 498.396 813.696 498.396Z" fill="#6957C4"/>
<path d="M691.302 521.342H502.239C499.527 521.342 497.328 523.541 497.328 526.253V531.732C497.328 534.444 499.527 536.643 502.239 536.643H691.302C694.015 536.643 696.213 534.444 696.213 531.732V526.253C696.213 523.541 694.015 521.342 691.302 521.342Z" fill="#6957C4"/>
<path d="M523.307 155.56H155.188C143.013 155.56 133.143 165.43 133.143 177.606V512.949C133.143 525.125 143.013 534.995 155.188 534.995H523.307C535.482 534.995 545.352 525.125 545.352 512.949V177.606C545.352 165.43 535.482 155.56 523.307 155.56Z" fill="#9073EF"/>
<path d="M545.352 183.898V170.048C545.352 156.237 534.155 145.039 520.344 145.039H158.151C144.34 145.039 133.143 156.237 133.143 170.048V183.898H545.352Z" fill="#6957C4"/>
<path d="M163.439 172.176C167.965 172.176 171.635 168.507 171.635 163.98C171.635 159.453 167.965 155.784 163.439 155.784C158.912 155.784 155.243 159.453 155.243 163.98C155.243 168.507 158.912 172.176 163.439 172.176Z" fill="#E67A84"/>
<path d="M186.144 172.176C190.671 172.176 194.34 168.507 194.34 163.98C194.34 159.453 190.671 155.784 186.144 155.784C181.618 155.784 177.948 159.453 177.948 163.98C177.948 168.507 181.618 172.176 186.144 172.176Z" fill="#F0956A"/>
<path d="M494.556 444.05H183.099C180.387 444.05 178.188 446.249 178.188 448.962V454.44C178.188 457.153 180.387 459.351 183.099 459.351H494.556C497.268 459.351 499.467 457.153 499.467 454.44V448.962C499.467 446.249 497.268 444.05 494.556 444.05Z" fill="#6957C4"/>
<path d="M372.162 466.997H183.099C180.387 466.997 178.188 469.195 178.188 471.908V477.387C178.188 480.099 180.387 482.298 183.099 482.298H372.162C374.875 482.298 377.073 480.099 377.073 477.387V471.908C377.073 469.195 374.875 466.997 372.162 466.997Z" fill="#6957C4"/>
<path d="M795.934 481.594C798.839 481.594 801.194 479.239 801.194 476.334C801.194 473.428 798.839 471.073 795.934 471.073C793.029 471.073 790.674 473.428 790.674 476.334C790.674 479.239 793.029 481.594 795.934 481.594Z" fill="#E67A84"/>
<path d="M810.515 481.594C813.42 481.594 815.775 479.239 815.775 476.334C815.775 473.428 813.42 471.073 810.515 471.073C807.609 471.073 805.254 473.428 805.254 476.334C805.254 479.239 807.609 481.594 810.515 481.594Z" fill="#F0956A"/>
<path d="M928.182 670.872H810.318C807.605 670.872 805.407 673.071 805.407 675.783C805.407 678.496 807.605 680.694 810.318 680.694H928.182C930.894 680.694 933.093 678.496 933.093 675.783C933.093 673.071 930.894 670.872 928.182 670.872Z" fill="#6957C4"/>
<path d="M501.988 258.319H171.231C168.98 258.319 167.155 260.143 167.155 262.393C167.155 264.643 168.98 266.466 171.231 266.466H501.988C504.239 266.466 506.064 264.643 506.064 262.393C506.064 260.143 504.239 258.319 501.988 258.319Z" fill="#6957C4"/>
<path d="M501.988 278.689H171.231C168.98 278.689 167.155 280.513 167.155 282.763C167.155 285.013 168.98 286.837 171.231 286.837H501.988C504.239 286.837 506.064 285.013 506.064 282.763C506.064 280.513 504.239 278.689 501.988 278.689Z" fill="#6957C4"/>
<path d="M454.329 299.061H171.231C168.98 299.061 167.155 300.884 167.155 303.134C167.155 305.384 168.98 307.208 171.231 307.208H454.329C456.58 307.208 458.405 305.384 458.405 303.134C458.405 300.884 456.58 299.061 454.329 299.061Z" fill="#6957C4"/>
<path d="M506.899 341.81H176.142C173.891 341.81 172.066 343.633 172.066 345.883C172.066 348.133 173.891 349.957 176.142 349.957H506.899C509.15 349.957 510.975 348.133 510.975 345.883C510.975 343.633 509.15 341.81 506.899 341.81Z" fill="#6957C4"/>
<path d="M506.899 362.181H176.142C173.891 362.181 172.066 364.004 172.066 366.254C172.066 368.504 173.891 370.328 176.142 370.328H506.899C509.15 370.328 510.975 368.504 510.975 366.254C510.975 364.004 509.15 362.181 506.899 362.181Z" fill="#6957C4"/>
<path d="M459.24 382.551H176.142C173.891 382.551 172.066 384.375 172.066 386.624C172.066 388.874 173.891 390.698 176.142 390.698H459.24C461.492 390.698 463.316 388.874 463.316 386.624C463.316 384.375 461.492 382.551 459.24 382.551Z" fill="#6957C4"/>
<path d="M419.215 218.92H174.756C170.256 218.92 166.609 222.568 166.609 227.067V227.073C166.609 231.572 170.256 235.22 174.756 235.22H419.215C423.715 235.22 427.362 231.572 427.362 227.073V227.067C427.362 222.568 423.715 218.92 419.215 218.92Z" fill="#6957C4"/>
<path d="M962.559 484.792H766.119C763.406 484.792 761.208 486.99 761.208 489.703C761.208 492.415 763.406 494.614 766.119 494.614H962.559C965.271 494.614 967.47 492.415 967.47 489.703C967.47 486.99 965.271 484.792 962.559 484.792Z" fill="#6957C4"/>
<path d="M883.983 499.525H766.119C763.406 499.525 761.208 501.724 761.208 504.437C761.208 507.149 763.406 509.348 766.119 509.348H883.983C886.695 509.348 888.894 507.149 888.894 504.437C888.894 501.724 886.695 499.525 883.983 499.525Z" fill="#6957C4"/>
<path d="M242.593 362.884H22.045C9.86988 362.884 0 372.755 0 384.93V584.435C0 596.61 9.86988 606.481 22.045 606.481H242.593C254.768 606.481 264.638 596.61 264.638 584.435V384.93C264.638 372.755 254.768 362.884 242.593 362.884Z" fill="#9073EF"/>
<path d="M264.638 381.078V372.183C264.638 363.316 257.452 356.129 248.585 356.129H16.0536C7.18645 356.129 0 363.316 0 372.183V381.078H264.638Z" fill="#6957C4"/>
<path d="M19.4477 373.547C22.3529 373.547 24.708 371.192 24.708 368.287C24.708 365.382 22.3529 363.026 19.4477 363.026C16.5426 363.026 14.1875 365.382 14.1875 368.287C14.1875 371.192 16.5426 373.547 19.4477 373.547Z" fill="#E67A84"/>
<path d="M34.0278 373.547C36.933 373.547 39.2881 371.192 39.2881 368.287C39.2881 365.382 36.933 363.026 34.0278 363.026C31.1227 363.026 28.7676 365.382 28.7676 368.287C28.7676 371.192 31.1227 373.547 34.0278 373.547Z" fill="#F0956A"/>
<path d="M74.5605 81.6027C77.4657 81.6027 79.8208 79.2475 79.8208 76.3422C79.8208 73.437 77.4657 71.0818 74.5605 71.0818C71.6554 71.0818 69.3003 73.437 69.3003 76.3422C69.3003 79.2475 71.6554 81.6027 74.5605 81.6027Z" fill="#E67A84"/>
<path d="M89.1406 81.6027C92.0458 81.6027 94.4009 79.2475 94.4009 76.3422C94.4009 73.437 92.0458 71.0818 89.1406 71.0818C86.2355 71.0818 83.8804 73.437 83.8804 76.3422C83.8804 79.2475 86.2355 81.6027 89.1406 81.6027Z" fill="#F0956A"/>
<path d="M235.183 405.667H28.9204V533.358H235.183V405.667Z" fill="#6957C4"/>
<path d="M107.497 439.499V503.345L176.251 473.878L107.497 439.499Z" fill="#9073EF"/>
<path d="M230.272 548.092H33.8314C31.1191 548.092 28.9204 550.291 28.9204 553.003C28.9204 555.715 31.1191 557.914 33.8314 557.914H230.272C232.984 557.914 235.183 555.715 235.183 553.003C235.183 550.291 232.984 548.092 230.272 548.092Z" fill="#6957C4"/>
<path d="M151.696 562.825H33.8314C31.1191 562.825 28.9204 565.024 28.9204 567.736C28.9204 570.449 31.1191 572.648 33.8314 572.648H151.696C154.408 572.648 156.607 570.449 156.607 567.736C156.607 565.024 154.408 562.825 151.696 562.825Z" fill="#6957C4"/>
<path d="M842.447 209.906H474.328C462.153 209.906 452.283 219.776 452.283 231.951V567.295C452.283 579.47 462.153 589.341 474.328 589.341H842.447C854.622 589.341 864.492 579.47 864.492 567.295V231.951C864.492 219.776 854.622 209.906 842.447 209.906Z" fill="#9073EF"/>
<path d="M864.492 238.243V224.394C864.492 210.582 853.295 199.385 839.484 199.385H477.291C463.48 199.385 452.283 210.582 452.283 224.394V238.243H864.492Z" fill="#6957C4"/>
<path d="M818.607 276.551H497.328V475.444H818.607V276.551Z" fill="#6957C4"/>
<path d="M619.721 329.248V428.695C655.419 413.394 691.116 398.098 726.814 382.797C691.116 364.947 655.419 347.098 619.721 329.248Z" fill="#9073EF"/>
<path d="M974.881 299.584H754.333C742.157 299.584 732.288 309.454 732.288 321.63V521.134C732.288 533.31 742.157 543.18 754.333 543.18H974.881C987.056 543.18 996.926 533.31 996.926 521.134V321.63C996.926 309.454 987.056 299.584 974.881 299.584Z" fill="#9073EF"/>
<path d="M996.926 317.778V308.883C996.926 300.015 989.74 292.829 980.872 292.829H748.341C739.474 292.829 732.288 300.015 732.288 308.883V317.778H996.926Z" fill="#6957C4"/>
<path d="M968.534 381.1H755.997C753.745 381.1 751.92 382.923 751.92 385.173C751.92 387.423 753.745 389.247 755.997 389.247H968.534C970.786 389.247 972.611 387.423 972.611 385.173C972.611 382.923 970.786 381.1 968.534 381.1Z" fill="#6957C4"/>
<path d="M968.534 401.47H755.997C753.745 401.47 751.92 403.294 751.92 405.544C751.92 407.794 753.745 409.617 755.997 409.617H968.534C970.786 409.617 972.611 407.794 972.611 405.544C972.611 403.294 970.786 401.47 968.534 401.47Z" fill="#6957C4"/>
<path d="M968.534 424.935H755.997C753.745 424.935 751.92 426.758 751.92 429.008C751.92 431.258 753.745 433.082 755.997 433.082H968.534C970.786 433.082 972.611 431.258 972.611 429.008C972.611 426.758 970.786 424.935 968.534 424.935Z" fill="#6957C4"/>
<path d="M968.534 447.308H755.997C753.745 447.308 751.92 449.132 751.92 451.382C751.92 453.631 753.745 455.455 755.997 455.455H968.534C970.786 455.455 972.611 453.631 972.611 451.382C972.611 449.132 970.786 447.308 968.534 447.308Z" fill="#6957C4"/>
<path d="M968.534 470.772H755.997C753.745 470.772 751.92 472.596 751.92 474.846C751.92 477.096 753.745 478.92 755.997 478.92H968.534C970.786 478.92 972.611 477.096 972.611 474.846C972.611 472.596 970.786 470.772 968.534 470.772Z" fill="#6957C4"/>
<path d="M880.136 493.692H755.997C753.745 493.692 751.92 495.516 751.92 497.765C751.92 500.015 753.745 501.839 755.997 501.839H880.136C882.387 501.839 884.212 500.015 884.212 497.765C884.212 495.516 882.387 493.692 880.136 493.692Z" fill="#6957C4"/>
<path d="M913.215 341.701H759.713C755.213 341.701 751.566 345.348 751.566 349.848V349.853C751.566 354.353 755.213 358 759.713 358H913.215C917.714 358 921.362 354.353 921.362 349.853V349.848C921.362 345.348 917.714 341.701 913.215 341.701Z" fill="#6957C4"/>
<path d="M1019.08 470.931H798.531C786.356 470.931 776.486 480.801 776.486 492.977V692.482C776.486 704.657 786.356 714.527 798.531 714.527H1019.08C1031.25 714.527 1041.12 704.657 1041.12 692.482V492.977C1041.12 480.801 1031.25 470.931 1019.08 470.931Z" fill="#9073EF"/>
<path d="M1041.12 489.124V480.23C1041.12 471.362 1033.94 464.175 1025.07 464.175H792.54C783.673 464.175 776.486 471.362 776.486 480.23V489.124H1041.12Z" fill="#6957C4"/>
<path d="M903.742 656.139H810.318C807.605 656.139 805.407 658.337 805.407 661.05C805.407 663.762 807.605 665.961 810.318 665.961H903.742C906.454 665.961 908.653 663.762 908.653 661.05C908.653 658.337 906.454 656.139 903.742 656.139Z" fill="#6957C4"/>
<path d="M903.856 636.253H810.433C807.72 636.253 805.521 638.452 805.521 641.165C805.521 643.877 807.72 646.076 810.433 646.076H903.856C906.569 646.076 908.767 643.877 908.767 641.165C908.767 638.452 906.569 636.253 903.856 636.253Z" fill="#6957C4"/>
<path d="M903.856 616.608H810.433C807.72 616.608 805.521 618.807 805.521 621.52C805.521 624.232 807.72 626.431 810.433 626.431H903.856C906.569 626.431 908.767 624.232 908.767 621.52C908.767 618.807 906.569 616.608 903.856 616.608Z" fill="#6957C4"/>
<path d="M1006.76 592.292H810.318C807.605 592.292 805.407 594.491 805.407 597.204C805.407 599.916 807.605 602.115 810.318 602.115H1006.76C1009.47 602.115 1011.67 599.916 1011.67 597.204C1011.67 594.491 1009.47 592.292 1006.76 592.292Z" fill="#6957C4"/>
<path d="M1006.99 572.408H810.547C807.835 572.408 805.636 574.607 805.636 577.319C805.636 580.031 807.835 582.23 810.547 582.23H1006.99C1009.7 582.23 1011.9 580.031 1011.9 577.319C1011.9 574.607 1009.7 572.408 1006.99 572.408Z" fill="#6957C4"/>
<path d="M1006.99 552.763H810.547C807.835 552.763 805.636 554.962 805.636 557.674C805.636 560.386 807.835 562.585 810.547 562.585H1006.99C1009.7 562.585 1011.9 560.386 1011.9 557.674C1011.9 554.962 1009.7 552.763 1006.99 552.763Z" fill="#6957C4"/>
<path d="M964.508 518.504H811.006C806.506 518.504 802.859 522.152 802.859 526.652V526.657C802.859 531.157 806.506 534.804 811.006 534.804H964.508C969.007 534.804 972.655 531.157 972.655 526.657V526.652C972.655 522.152 969.007 518.504 964.508 518.504Z" fill="#6957C4"/>
<path d="M1011.9 616.608H918.589V665.721H1011.9V616.608Z" fill="#6957C4"/>
<path d="M132.827 218.8H83.7168V267.912H132.827V218.8Z" fill="#6957C4"/>
<path d="M484.838 230.02C489.364 230.02 493.033 226.35 493.033 221.823C493.033 217.297 489.364 213.627 484.838 213.627C480.311 213.627 476.642 217.297 476.642 221.823C476.642 226.35 480.311 230.02 484.838 230.02Z" fill="#E67A84"/>
<path d="M507.543 230.02C512.069 230.02 515.739 226.35 515.739 221.823C515.739 217.297 512.069 213.627 507.543 213.627C503.016 213.627 499.347 217.297 499.347 221.823C499.347 226.35 503.016 230.02 507.543 230.02Z" fill="#F0956A"/>
<path d="M746.824 312.43C749.729 312.43 752.084 310.075 752.084 307.17C752.084 304.264 749.729 301.909 746.824 301.909C743.919 301.909 741.563 304.264 741.563 307.17C741.563 310.075 743.919 312.43 746.824 312.43Z" fill="#E67A84"/>
<path d="M761.404 312.43C764.309 312.43 766.664 310.075 766.664 307.17C766.664 304.264 764.309 301.909 761.404 301.909C758.499 301.909 756.144 304.264 756.144 307.17C756.144 310.075 758.499 312.43 761.404 312.43Z" fill="#F0956A"/>
<path d="M795.934 484.322C798.839 484.322 801.194 481.967 801.194 479.062C801.194 476.156 798.839 473.801 795.934 473.801C793.029 473.801 790.674 476.156 790.674 479.062C790.674 481.967 793.029 484.322 795.934 484.322Z" fill="#E67A84"/>
<path d="M810.515 484.322C813.42 484.322 815.775 481.967 815.775 479.062C815.775 476.156 813.42 473.801 810.515 473.801C807.609 473.801 805.254 476.156 805.254 479.062C805.254 481.967 807.609 484.322 810.515 484.322Z" fill="#F0956A"/>
<path d="M89.435 924.946C89.435 921.645 86.7599 918.97 83.4599 918.97C80.16 918.97 77.4849 921.645 77.4849 924.946V948.841C77.4849 952.141 80.16 954.817 83.4599 954.817C86.7599 954.817 89.435 952.141 89.435 948.841V924.946Z" fill="#55AA5D"/>
<path d="M913.886 930.255C913.886 926.955 911.211 924.28 907.911 924.28C904.611 924.28 901.936 926.955 901.936 930.255V954.151C901.936 957.451 904.611 960.126 907.911 960.126C911.211 960.126 913.886 957.451 913.886 954.151V930.255Z" fill="#55AA5D"/>
<path d="M519.58 824.527C434.423 824.298 329.447 823.889 202.787 823.272C198.531 822.868 186.286 822.279 175.143 830.181C171.067 833.073 168.208 836.342 166.26 839.065C136.974 875.266 107.688 911.461 78.3962 947.662C77.8069 949.469 77.0102 952.95 78.3962 956.546C80.6607 962.418 87.8581 966.238 96.1632 965.43H519.575V824.522L519.58 824.527Z" fill="#55AA5D"/>
<path d="M471.785 824.527C556.942 824.298 661.918 823.889 788.578 823.272C792.835 822.868 805.08 822.279 816.222 830.181C820.298 833.073 823.158 836.342 825.106 839.065C854.392 875.266 883.678 911.461 912.969 947.662C913.558 949.469 914.355 952.95 912.969 956.546C910.705 962.418 903.507 966.238 895.202 965.43H471.791V824.522L471.785 824.527Z" fill="#55AA5D"/>
<path d="M519.728 800.206C434.571 799.977 329.595 799.568 202.934 798.951C198.678 798.547 186.433 797.958 175.291 805.859C171.215 808.752 168.355 812.02 166.407 814.743C137.121 850.944 107.835 887.14 78.5437 923.341C77.9544 925.147 77.1577 928.629 78.5437 932.225C80.8082 938.097 88.0056 941.916 96.3106 941.109H519.722V800.201L519.728 800.206Z" fill="#73D87F"/>
<path d="M471.933 800.206C557.09 799.977 662.065 799.568 788.726 798.951C792.982 798.547 805.227 797.958 816.37 805.859C820.446 808.752 823.305 812.02 825.253 814.743C854.539 850.944 883.825 887.14 913.117 923.341C913.706 925.147 914.503 928.629 913.117 932.225C910.852 938.097 903.655 941.916 895.35 941.109H471.938V800.201L471.933 800.206Z" fill="#73D87F"/>
<path d="M493.53 823.376H222.96C212.347 835.316 201.739 847.25 191.126 859.19C191.011 859.397 188.932 863.321 191.126 867.146C192.703 869.896 195.835 871.468 199.082 871.124H493.525V823.376H493.53Z" fill="#55AA5D"/>
<path d="M445.5 883.124H549.45C554.23 895.075 559.01 907.02 563.791 918.97H423.99C429.965 907.02 435.94 895.075 441.915 883.124H445.5Z" fill="#55AA5D"/>
<path d="M491.773 822.967H762.343C772.956 834.907 783.564 846.841 794.177 858.78C794.292 858.988 796.371 862.911 794.177 866.737C792.6 869.487 789.468 871.059 786.221 870.715H491.778V822.967H491.773Z" fill="#55AA5D"/>
<path d="M810.039 417.109H181.331C176.772 417.109 173.075 420.806 173.075 425.366V791.224C173.075 795.784 176.772 799.48 181.331 799.48H810.039C814.599 799.48 818.295 795.784 818.295 791.224V425.366C818.295 420.806 814.599 417.109 810.039 417.109Z" fill="#55AA5D"/>
<path d="M786.14 431.271H205.226C200.667 431.271 196.97 434.967 196.97 439.527V777.058C196.97 781.618 200.667 785.315 205.226 785.315H786.14C790.699 785.315 794.396 781.618 794.396 777.058V439.527C794.396 434.967 790.699 431.271 786.14 431.271Z" fill="#96F4A4"/>
<path d="M728.478 467.144H266.504C254.329 467.144 244.459 477.014 244.459 489.19V722.625C244.459 734.801 254.329 744.671 266.504 744.671H728.478C740.653 744.671 750.523 734.801 750.523 722.625V489.19C750.523 477.014 740.653 467.144 728.478 467.144Z" fill="#F1CE80"/>
<path d="M521.507 560.086H268.906C266.655 560.086 264.83 561.91 264.83 564.159C264.83 566.409 266.655 568.233 268.906 568.233H521.507C523.758 568.233 525.583 566.409 525.583 564.159C525.583 561.91 523.758 560.086 521.507 560.086Z" fill="#F0956A"/>
<path d="M521.507 580.457H268.906C266.655 580.457 264.83 582.28 264.83 584.53C264.83 586.78 266.655 588.604 268.906 588.604H521.507C523.758 588.604 525.583 586.78 525.583 584.53C525.583 582.28 523.758 580.457 521.507 580.457Z" fill="#F0956A"/>
<path d="M484.838 600.827H268.906C266.655 600.827 264.83 602.651 264.83 604.901C264.83 607.151 266.655 608.974 268.906 608.974H484.838C487.089 608.974 488.914 607.151 488.914 604.901C488.914 602.651 487.089 600.827 484.838 600.827Z" fill="#F0956A"/>
<path d="M721.893 681.262H268.906C266.655 681.262 264.83 683.086 264.83 685.335C264.83 687.585 266.655 689.409 268.906 689.409H721.893C724.144 689.409 725.969 687.585 725.969 685.335C725.969 683.086 724.144 681.262 721.893 681.262Z" fill="#F0956A"/>
<path d="M648.227 701.638H268.906C266.655 701.638 264.83 703.462 264.83 705.712C264.83 707.962 266.655 709.785 268.906 709.785H648.227C650.478 709.785 652.303 707.962 652.303 705.712C652.303 703.462 650.478 701.638 648.227 701.638Z" fill="#F0956A"/>
<path d="M517.436 523.416H272.976C268.477 523.416 264.83 527.063 264.83 531.563V531.568C264.83 536.068 268.477 539.715 272.976 539.715H517.436C521.935 539.715 525.583 536.068 525.583 531.568V531.563C525.583 527.063 521.935 523.416 517.436 523.416Z" fill="#F0956A"/>
<path d="M427.804 648.668H272.976C268.477 648.668 264.83 652.316 264.83 656.815V656.821C264.83 661.32 268.477 664.968 272.976 664.968H427.804C432.304 664.968 435.951 661.32 435.951 656.821V656.815C435.951 652.316 432.304 648.668 427.804 648.668Z" fill="#F0956A"/>
<path d="M725.969 523.841H554.083V650.987H725.969V523.841Z" fill="#F0956A"/>
<path d="M750.676 488.917V484.666C750.676 470.68 740.805 459.346 728.626 459.346H266.657C254.478 459.346 244.607 470.68 244.607 484.666V488.917H750.671H750.676Z" fill="#F0956A"/>
<path d="M262.794 479.722C266.169 479.722 268.906 476.986 268.906 473.61C268.906 470.235 266.169 467.499 262.794 467.499C259.419 467.499 256.683 470.235 256.683 473.61C256.683 476.986 259.419 479.722 262.794 479.722Z" fill="#E67A84"/>
<path d="M279.164 479.177C282.54 479.177 285.276 476.44 285.276 473.065C285.276 469.689 282.54 466.953 279.164 466.953C275.789 466.953 273.053 469.689 273.053 473.065C273.053 476.44 275.789 479.177 279.164 479.177Z" fill="#E67A84"/>
<path d="M599.493 76.6913C602.398 76.6913 604.753 74.3361 604.753 71.4309C604.753 68.5256 602.398 66.1704 599.493 66.1704C596.588 66.1704 594.233 68.5256 594.233 71.4309C594.233 74.3361 596.588 76.6913 599.493 76.6913Z" fill="#E67A84"/>
<path d="M614.074 76.6913C616.979 76.6913 619.334 74.3361 619.334 71.4309C619.334 68.5256 616.979 66.1704 614.074 66.1704C611.169 66.1704 608.813 68.5256 608.813 71.4309C608.813 74.3361 611.169 76.6913 614.074 76.6913Z" fill="#F0956A"/>
<path d="M613.638 24.949V16.0542C613.638 7.18675 606.452 0 597.585 0H365.054C356.186 0 349 7.18675 349 16.0542V24.949H613.638Z" fill="#6957C4"/>
<path d="M370.26 17.5209C373.165 17.5209 375.52 15.1657 375.52 12.2605C375.52 9.35519 373.165 7 370.26 7C367.355 7 365 9.35519 365 12.2605C365 15.1657 367.355 17.5209 370.26 17.5209Z" fill="#E67A84"/>
<path d="M384.84 17.5209C387.745 17.5209 390.101 15.1657 390.101 12.2605C390.101 9.35519 387.745 7 384.84 7C381.935 7 379.58 9.35519 379.58 12.2605C379.58 15.1657 381.935 17.5209 384.84 17.5209Z" fill="#F0956A"/>
</svg>
