<svg width="32" height="24" viewBox="0 0 32 24" fill="none" xmlns="http://www.w3.org/2000/svg">
<path d="M12.8333 16.7501L21.0508 12.0001L12.8333 7.25008V16.7501ZM31.1366 4.35258C31.3425 5.09675 31.485 6.09425 31.58 7.36092C31.6908 8.62758 31.7383 9.72008 31.7383 10.6701L31.8333 12.0001C31.8333 15.4676 31.58 18.0168 31.1366 19.6476C30.7408 21.0726 29.8225 21.9909 28.3975 22.3868C27.6533 22.5926 26.2916 22.7351 24.2016 22.8301C22.1433 22.9409 20.2591 22.9884 18.5175 22.9884L16 23.0834C9.36579 23.0834 5.23329 22.8301 3.60246 22.3868C2.17746 21.9909 1.25913 21.0726 0.863293 19.6476C0.657459 18.9034 0.514959 17.9059 0.419959 16.6393C0.309126 15.3726 0.261626 14.2801 0.261626 13.3301L0.166626 12.0001C0.166626 8.53258 0.419959 5.98342 0.863293 4.35258C1.25913 2.92758 2.17746 2.00925 3.60246 1.61341C4.34663 1.40758 5.70829 1.26508 7.79829 1.17008C9.85663 1.05925 11.7408 1.01175 13.4825 1.01175L16 0.916748C22.6341 0.916748 26.7666 1.17008 28.3975 1.61341C29.8225 2.00925 30.7408 2.92758 31.1366 4.35258Z" fill="white"/>
</svg>
